<?xml version="1.0" encoding="UTF-8" standalone="no"?><svg xmlns="http://www.w3.org/2000/svg" xmlns:xlink="http://www.w3.org/1999/xlink" contentScriptType="application/ecmascript" contentStyleType="text/css" height="341px" preserveAspectRatio="none" style="width:209px;height:341px;background:#FFFFFF;" version="1.1" viewBox="0 0 209 341" width="209px" zoomAndPan="magnify"><defs><filter height="300%" id="f15fqwggz8hoz9" width="300%" x="-1" y="-1"><feGaussianBlur result="blurOut" stdDeviation="2.0"/><feColorMatrix in="blurOut" result="blurOut2" type="matrix" values="0 0 0 0 0 0 0 0 0 0 0 0 0 0 0 0 0 0 .4 0"/><feOffset dx="4.0" dy="4.0" in="blurOut2" result="blurOut3"/><feBlend in="SourceGraphic" in2="blurOut3" mode="normal"/></filter></defs><g><rect fill="#FEFECE" filter="url(#f15fqwggz8hoz9)" height="35.0938" style="stroke:#A80036;stroke-width:1.5;" width="61" x="53" y="7"/><text fill="#000000" font-family="sans-serif" font-size="12" lengthAdjust="spacing" textLength="47" x="60" y="21.457">:Hanged</text><line style="stroke:#A80036;stroke-width:1.5;" x1="54" x2="113" y1="26.0938" y2="26.0938"/><rect fill="#FEFECE" filter="url(#f15fqwggz8hoz9)" height="35.0938" style="stroke:#A80036;stroke-width:1.5;" width="42" x="13.5" y="102"/><text fill="#000000" font-family="sans-serif" font-size="12" lengthAdjust="spacing" textLength="28" x="20.5" y="116.457">:Turn</text><line style="stroke:#A80036;stroke-width:1.5;" x1="14.5" x2="54.5" y1="121.0938" y2="121.0938"/><rect fill="#FEFECE" filter="url(#f15fqwggz8hoz9)" height="35.0938" style="stroke:#A80036;stroke-width:1.5;" width="51" x="7" y="197"/><text fill="#000000" font-family="sans-serif" font-size="12" lengthAdjust="spacing" textLength="37" x="14" y="211.457">:Player</text><line style="stroke:#A80036;stroke-width:1.5;" x1="8" x2="57" y1="216.0938" y2="216.0938"/><rect fill="#FEFECE" filter="url(#f15fqwggz8hoz9)" height="35.0938" style="stroke:#A80036;stroke-width:1.5;" width="83" x="92" y="102"/><text fill="#000000" font-family="sans-serif" font-size="12" lengthAdjust="spacing" textLength="69" x="99" y="116.457">:BoardPaper</text><line style="stroke:#A80036;stroke-width:1.5;" x1="93" x2="174" y1="121.0938" y2="121.0938"/><rect fill="#FEFECE" filter="url(#f15fqwggz8hoz9)" height="35.0938" style="stroke:#A80036;stroke-width:1.5;" width="81" x="93" y="197"/><text fill="#000000" font-family="sans-serif" font-size="12" lengthAdjust="spacing" textLength="67" x="100" y="211.457">:SecretWord</text><line style="stroke:#A80036;stroke-width:1.5;" x1="94" x2="173" y1="216.0938" y2="216.0938"/><rect fill="#FEFECE" filter="url(#f15fqwggz8hoz9)" height="35.0938" style="stroke:#A80036;stroke-width:1.5;" width="100" x="79.5" y="292"/><text fill="#000000" font-family="sans-serif" font-size="12" lengthAdjust="spacing" textLength="86" x="86.5" y="306.457">:ProposedWord</text><line style="stroke:#A80036;stroke-width:1.5;" x1="80.5" x2="178.5" y1="311.0938" y2="311.0938"/><!--MD5=[e90afb27da7daae0eb5b444323018d1d]
link Hanged to Turn--><path codeLine="10" d="M69.1532,52.7502 C69.1532,52.7502 55.54,78.56 49.48,90.07 " fill="none" id="Hanged-Turn" style="stroke:#A80036;stroke-width:1.0;"/><polygon fill="#A80036" points="43.35,101.7,51.0833,95.6011,45.6801,97.2761,44.0051,91.873,43.35,101.7" style="stroke:#A80036;stroke-width:1.0;"/><line style="stroke:#A80036;stroke-width:1.0;" x1="45.6801" x2="49.405" y1="97.2761" y2="90.2"/><polygon fill="#A80036" points="74.74,42.13,68.4066,45.5778,69.1532,52.7502,75.4867,49.3023,74.74,42.13" style="stroke:#A80036;stroke-width:1.0;"/><!--MD5=[d81713d91ad05be3b975338c4816ee0b]
link Turn to Player--><path codeLine="11" d="M33.8895,149.1274 C33.8895,149.1274 33.37,172.95 33.14,183.65 " fill="none" id="Turn-Player" style="stroke:#A80036;stroke-width:1.0;"/><polygon fill="#A80036" points="32.86,196.7,37.047,187.7855,32.9644,191.7011,29.0487,187.6185,32.86,196.7" style="stroke:#A80036;stroke-width:1.0;"/><line style="stroke:#A80036;stroke-width:1.0;" x1="32.9644" x2="33.14" y1="191.7011" y2="183.705"/><polygon fill="#A80036" points="34.14,137.13,30.0156,143.0452,33.8895,149.1274,38.0139,143.2122,34.14,137.13" style="stroke:#A80036;stroke-width:1.0;"/><!--MD5=[44bd0b9b180a9b719cd52166550804d4]
link Player to ProposedWord--><path codeLine="12" d="M49.84,232.13 C66.15,247.77 90.62,271.23 108.13,288.02 " fill="none" id="Player-to-ProposedWord" style="stroke:#A80036;stroke-width:1.0;"/><polygon fill="#A80036" points="111.98,291.7,108.2411,282.5884,108.3668,288.2439,102.7113,288.3696,111.98,291.7" style="stroke:#A80036;stroke-width:1.0;"/><!--MD5=[16d7e3e7476f96649197208e6f04a604]
link Hanged to BoardPaper--><path codeLine="13" d="M98.1261,52.6973 C98.1261,52.6973 112.03,78.56 118.21,90.07 " fill="none" id="Hanged-BoardPaper" style="stroke:#A80036;stroke-width:1.0;"/><polygon fill="#A80036" points="124.47,101.7,123.7279,91.8791,122.1008,97.2969,116.683,95.6698,124.47,101.7" style="stroke:#A80036;stroke-width:1.0;"/><line style="stroke:#A80036;stroke-width:1.0;" x1="122.1008" x2="118.315" y1="97.2969" y2="90.255"/><polygon fill="#A80036" points="92.44,42.13,91.7606,49.309,98.1261,52.6973,98.8055,45.5183,92.44,42.13" style="stroke:#A80036;stroke-width:1.0;"/><!--MD5=[008fbc63679112eb6e4439ba755bcc9d]
link BoardPaper to SecretWord--><path codeLine="14" d="M133.5,149.13 C133.5,149.13 133.5,172.95 133.5,183.65 " fill="none" id="BoardPaper-SecretWord" style="stroke:#A80036;stroke-width:1.0;"/><polygon fill="#A80036" points="133.5,196.7,137.5,187.7,133.5,191.7,129.5,187.7,133.5,196.7" style="stroke:#A80036;stroke-width:1.0;"/><line style="stroke:#A80036;stroke-width:1.0;" x1="133.5" x2="133.5" y1="191.7" y2="183.7"/><polygon fill="#A80036" points="133.5,137.13,129.5,143.13,133.5,149.13,137.5,143.13,133.5,137.13" style="stroke:#A80036;stroke-width:1.0;"/><!--MD5=[4e35d5b56c2ed85cdeffd3df6c5495ce]
link BoardPaper to ProposedWord--><path codeLine="15" d="M160.4516,145.9037 C160.4516,145.9037 202.32,201.46 191.5,232 C184.77,251 171.08,268.73 158.27,282.33 " fill="none" id="BoardPaper-ProposedWord" style="stroke:#A80036;stroke-width:1.0;"/><polygon fill="#A80036" points="148.78,291.88,157.9641,288.323,152.3073,288.3362,152.2941,282.6794,148.78,291.88" style="stroke:#A80036;stroke-width:1.0;"/><line style="stroke:#A80036;stroke-width:1.0;" x1="152.3073" x2="157.945" y1="288.3362" y2="282.66"/><polygon fill="#FFFFFF" points="152.18,137.21,153.4179,144.3141,160.4516,145.9037,159.2137,138.7997,152.18,137.21" style="stroke:#A80036;stroke-width:1.0;"/><!--MD5=[cf0c2e8ab8c2e81130e122e202e004cd]
@startuml
Object ":Hanged" as Hanged
Object ":Turn" as Turn
Object ":Player" as Player
Object ":BoardPaper" as BoardPaper
Object ":SecretWord" as SecretWord
Object ":ProposedWord" as ProposedWord



Hanged *- -> Turn
Turn *- -> Player
Player - -> ProposedWord
Hanged *- -> BoardPaper
BoardPaper *- -> SecretWord
BoardPaper o- -> ProposedWord

@enduml

PlantUML version 1.2021.7(Sun May 23 14:40:07 CEST 2021)
(GPL source distribution)
Java Runtime: OpenJDK Runtime Environment
JVM: OpenJDK 64-Bit Server VM
Default Encoding: Cp1252
Language: es
Country: ES
--></g></svg>