<?xml version="1.0" encoding="UTF-8" standalone="no"?><svg xmlns="http://www.w3.org/2000/svg" xmlns:xlink="http://www.w3.org/1999/xlink" contentScriptType="application/ecmascript" contentStyleType="text/css" height="523px" preserveAspectRatio="none" style="width:1466px;height:523px;background:#FFFFFF;" version="1.1" viewBox="0 0 1466 523" width="1466px" zoomAndPan="magnify"><defs><filter height="300%" id="f1qhq7g2rqu5tq" width="300%" x="-1" y="-1"><feGaussianBlur result="blurOut" stdDeviation="2.0"/><feColorMatrix in="blurOut" result="blurOut2" type="matrix" values="0 0 0 0 0 0 0 0 0 0 0 0 0 0 0 0 0 0 .4 0"/><feOffset dx="4.0" dy="4.0" in="blurOut2" result="blurOut3"/><feBlend in="SourceGraphic" in2="blurOut3" mode="normal"/></filter></defs><g><!--MD5=[a70b0d373322012744ecc119c63f921b]
cluster main--><polygon fill="#FFFFFF" filter="url(#f1qhq7g2rqu5tq)" points="709,27,748,27,755,50.6094,817,50.6094,817,127,709,127,709,27" style="stroke:#000000;stroke-width:1.5;"/><line style="stroke:#000000;stroke-width:1.5;" x1="709" x2="755" y1="50.6094" y2="50.6094"/><text fill="#000000" font-family="sans-serif" font-size="14" font-weight="bold" lengthAdjust="spacing" textLength="33" x="713" y="43.5332">main</text><!--MD5=[e2a75efa8a0f57c2afae8bf75386f79c]
cluster views--><polygon fill="#FFFFFF" filter="url(#f1qhq7g2rqu5tq)" points="426,156,473,156,480,179.6094,727,179.6094,727,404,426,404,426,156" style="stroke:#000000;stroke-width:1.5;"/><line style="stroke:#000000;stroke-width:1.5;" x1="426" x2="480" y1="179.6094" y2="179.6094"/><text fill="#000000" font-family="sans-serif" font-size="14" font-weight="bold" lengthAdjust="spacing" textLength="41" x="430" y="172.5332">views</text><!--MD5=[4b7a55d430ce43d42ce9ebad9e6b4010]
cluster console--><polygon fill="#FFFFFF" filter="url(#f1qhq7g2rqu5tq)" points="450,280,512,280,519,303.6094,703,303.6094,703,380,450,380,450,280" style="stroke:#000000;stroke-width:1.5;"/><line style="stroke:#000000;stroke-width:1.5;" x1="450" x2="519" y1="303.6094" y2="303.6094"/><text fill="#000000" font-family="sans-serif" font-size="14" font-weight="bold" lengthAdjust="spacing" textLength="56" x="454" y="296.5332">console</text><!--MD5=[f4e70ef68289585296b9045165e58692]
cluster controllers--><polygon fill="#FFFFFF" filter="url(#f1qhq7g2rqu5tq)" points="751,156,834,156,841,179.6094,1266,179.6094,1266,516,751,516,751,156" style="stroke:#000000;stroke-width:1.5;"/><line style="stroke:#000000;stroke-width:1.5;" x1="751" x2="841" y1="179.6094" y2="179.6094"/><text fill="#000000" font-family="sans-serif" font-size="14" font-weight="bold" lengthAdjust="spacing" textLength="77" x="755" y="172.5332">controllers</text><!--MD5=[a60570e4b426f702ccbb0d459e3b9417]
cluster models--><polygon fill="#FFFFFF" filter="url(#f1qhq7g2rqu5tq)" points="16,6,73,6,80,29.6094,402,29.6094,402,256,16,256,16,6" style="stroke:#000000;stroke-width:1.5;"/><line style="stroke:#000000;stroke-width:1.5;" x1="16" x2="80" y1="29.6094" y2="29.6094"/><text fill="#000000" font-family="sans-serif" font-size="14" font-weight="bold" lengthAdjust="spacing" textLength="51" x="20" y="22.5332">models</text><!--MD5=[d7ec263f7daf4a6472ede7f2d3e0d6e7]
class Hanged--><rect codeLine="2" fill="#FEFECE" filter="url(#f1qhq7g2rqu5tq)" height="48" id="Hanged" style="stroke:#A80036;stroke-width:1.5;" width="76" x="725" y="63"/><ellipse cx="740" cy="79" fill="#ADD1B2" rx="11" ry="11" style="stroke:#A80036;stroke-width:1.0;"/><path d="M742,75.5 Q742.2031,75 742.4375,74.75 Q742.6719,74.5 742.9375,74.5 Q743.4063,74.5 743.7031,74.7813 Q744,75.0625 744,75.7188 L744,77.2813 Q744,77.9375 743.7188,78.2188 Q743.4375,78.5 743,78.5 Q742.6094,78.5 742.3594,78.3281 Q742.1094,78.1563 742,77.7031 Q741.9531,77.3906 741.7813,77.2188 Q741.4688,76.8906 740.9063,76.7031 Q740.3438,76.5 739.7813,76.5 Q739.0781,76.5 738.4844,76.7813 Q737.9063,77.0625 737.4531,77.6875 Q737,78.3125 737,79.1719 L737,80.0938 Q737,81.125 737.8438,81.8125 Q738.6875,82.5 740.1875,82.5 Q741.0781,82.5 741.7031,82.2969 Q742.0625,82.1875 742.4688,81.8281 Q742.7344,81.625 742.875,81.5625 Q743.0156,81.5 743.1875,81.5 Q743.5156,81.5 743.75,81.7656 Q744,82.0156 744,82.375 Q744,82.7188 743.6563,83.125 Q743.1563,83.7188 742.3594,84.0469 Q741.3125,84.5 740.0313,84.5 Q738.5313,84.5 737.3281,83.9063 Q736.3594,83.4375 735.6719,82.4219 Q735,81.4063 735,80.2031 L735,79.1094 Q735,77.8594 735.5938,76.7656 Q736.2031,75.6719 737.25,75.0938 Q738.3125,74.5 739.5,74.5 Q740.2188,74.5 740.8438,74.75 Q741.4688,75 742,75.5 Z " fill="#000000"/><text fill="#000000" font-family="sans-serif" font-size="12" lengthAdjust="spacing" textLength="44" x="754" y="83.9102">Hanged</text><line style="stroke:#A80036;stroke-width:1.5;" x1="726" x2="800" y1="95" y2="95"/><line style="stroke:#A80036;stroke-width:1.5;" x1="726" x2="800" y1="103" y2="103"/><!--MD5=[c045e12321b83266d36d22b9096c24ea]
class View--><rect codeLine="6" fill="#FEFECE" filter="url(#f1qhq7g2rqu5tq)" height="48" id="View" style="stroke:#A80036;stroke-width:1.5;" width="58" x="616" y="192"/><ellipse cx="631" cy="208" fill="#A9DCDF" rx="11" ry="11" style="stroke:#A80036;stroke-width:1.0;"/><path d="M632.75,209.5 L629.4531,209.5 L629.0156,210.5 L629.0156,210.5 L629.4844,210.5 L630,211.125 L630,211.5 L630,211.875 L629.4844,212.5 L629.0156,212.5 L627.125,212.5 L626.5156,212.5 L626,211.875 L626,211.5 L626,211.125 L626.5156,210.5 L627.125,210.5 L629.4375,204.5 L628.5625,204.5 L627.5156,204.5 L627,203.875 L627,203.5 L627,203.125 L627.5156,202.5 L628.5625,202.5 L632.2344,202.5 L634.9219,210.5 L635.4844,210.5 L635.4844,210.5 L636,211.125 L636,211.5 L636,211.875 L635.4844,212.5 L634.9219,212.5 L633.0313,212.5 L632.5156,212.5 L632,211.875 L632,211.5 L632,211.125 L632.5156,210.5 L633.0313,210.5 L633.0313,210.5 L632.75,209.5 Z M632.2031,207.5 L631,203.9219 L629.9688,207.5 L632.2031,207.5 Z " fill="#000000"/><text fill="#000000" font-family="sans-serif" font-size="12" font-style="italic" lengthAdjust="spacing" textLength="26" x="645" y="212.9102">View</text><line style="stroke:#A80036;stroke-width:1.5;" x1="617" x2="673" y1="224" y2="224"/><line style="stroke:#A80036;stroke-width:1.5;" x1="617" x2="673" y1="232" y2="232"/><!--MD5=[443c52daef265809fdf31be84fc8ae4a]
class StartView--><rect codeLine="8" fill="#FEFECE" filter="url(#f1qhq7g2rqu5tq)" height="48" id="StartView" style="stroke:#A80036;stroke-width:1.5;" width="83" x="603.5" y="316"/><ellipse cx="618.5" cy="332" fill="#ADD1B2" rx="11" ry="11" style="stroke:#A80036;stroke-width:1.0;"/><path d="M620.5,328.5 Q620.7031,328 620.9375,327.75 Q621.1719,327.5 621.4375,327.5 Q621.9063,327.5 622.2031,327.7813 Q622.5,328.0625 622.5,328.7188 L622.5,330.2813 Q622.5,330.9375 622.2188,331.2188 Q621.9375,331.5 621.5,331.5 Q621.1094,331.5 620.8594,331.3281 Q620.6094,331.1563 620.5,330.7031 Q620.4531,330.3906 620.2813,330.2188 Q619.9688,329.8906 619.4063,329.7031 Q618.8438,329.5 618.2813,329.5 Q617.5781,329.5 616.9844,329.7813 Q616.4063,330.0625 615.9531,330.6875 Q615.5,331.3125 615.5,332.1719 L615.5,333.0938 Q615.5,334.125 616.3438,334.8125 Q617.1875,335.5 618.6875,335.5 Q619.5781,335.5 620.2031,335.2969 Q620.5625,335.1875 620.9688,334.8281 Q621.2344,334.625 621.375,334.5625 Q621.5156,334.5 621.6875,334.5 Q622.0156,334.5 622.25,334.7656 Q622.5,335.0156 622.5,335.375 Q622.5,335.7188 622.1563,336.125 Q621.6563,336.7188 620.8594,337.0469 Q619.8125,337.5 618.5313,337.5 Q617.0313,337.5 615.8281,336.9063 Q614.8594,336.4375 614.1719,335.4219 Q613.5,334.4063 613.5,333.2031 L613.5,332.1094 Q613.5,330.8594 614.0938,329.7656 Q614.7031,328.6719 615.75,328.0938 Q616.8125,327.5 618,327.5 Q618.7188,327.5 619.3438,327.75 Q619.9688,328 620.5,328.5 Z " fill="#000000"/><text fill="#000000" font-family="sans-serif" font-size="12" lengthAdjust="spacing" textLength="51" x="632.5" y="336.9102">StartView</text><line style="stroke:#A80036;stroke-width:1.5;" x1="604.5" x2="685.5" y1="348" y2="348"/><line style="stroke:#A80036;stroke-width:1.5;" x1="604.5" x2="685.5" y1="356" y2="356"/><!--MD5=[0c0ac116796a48fdc4c03542a0d43f99]
class InGameView--><rect codeLine="9" fill="#FEFECE" filter="url(#f1qhq7g2rqu5tq)" height="48" id="InGameView" style="stroke:#A80036;stroke-width:1.5;" width="102" x="466" y="316"/><ellipse cx="481" cy="332" fill="#ADD1B2" rx="11" ry="11" style="stroke:#A80036;stroke-width:1.0;"/><path d="M483,328.5 Q483.2031,328 483.4375,327.75 Q483.6719,327.5 483.9375,327.5 Q484.4063,327.5 484.7031,327.7813 Q485,328.0625 485,328.7188 L485,330.2813 Q485,330.9375 484.7188,331.2188 Q484.4375,331.5 484,331.5 Q483.6094,331.5 483.3594,331.3281 Q483.1094,331.1563 483,330.7031 Q482.9531,330.3906 482.7813,330.2188 Q482.4688,329.8906 481.9063,329.7031 Q481.3438,329.5 480.7813,329.5 Q480.0781,329.5 479.4844,329.7813 Q478.9063,330.0625 478.4531,330.6875 Q478,331.3125 478,332.1719 L478,333.0938 Q478,334.125 478.8438,334.8125 Q479.6875,335.5 481.1875,335.5 Q482.0781,335.5 482.7031,335.2969 Q483.0625,335.1875 483.4688,334.8281 Q483.7344,334.625 483.875,334.5625 Q484.0156,334.5 484.1875,334.5 Q484.5156,334.5 484.75,334.7656 Q485,335.0156 485,335.375 Q485,335.7188 484.6563,336.125 Q484.1563,336.7188 483.3594,337.0469 Q482.3125,337.5 481.0313,337.5 Q479.5313,337.5 478.3281,336.9063 Q477.3594,336.4375 476.6719,335.4219 Q476,334.4063 476,333.2031 L476,332.1094 Q476,330.8594 476.5938,329.7656 Q477.2031,328.6719 478.25,328.0938 Q479.3125,327.5 480.5,327.5 Q481.2188,327.5 481.8438,327.75 Q482.4688,328 483,328.5 Z " fill="#000000"/><text fill="#000000" font-family="sans-serif" font-size="12" lengthAdjust="spacing" textLength="70" x="495" y="336.9102">InGameView</text><line style="stroke:#A80036;stroke-width:1.5;" x1="467" x2="567" y1="348" y2="348"/><line style="stroke:#A80036;stroke-width:1.5;" x1="467" x2="567" y1="356" y2="356"/><!--MD5=[42fa18dda7351a0ae87d9497de925436]
class Logic--><rect codeLine="14" fill="#FEFECE" filter="url(#f1qhq7g2rqu5tq)" height="48" id="Logic" style="stroke:#A80036;stroke-width:1.5;" width="62" x="819" y="192"/><ellipse cx="834" cy="208" fill="#ADD1B2" rx="11" ry="11" style="stroke:#A80036;stroke-width:1.0;"/><path d="M836,204.5 Q836.2031,204 836.4375,203.75 Q836.6719,203.5 836.9375,203.5 Q837.4063,203.5 837.7031,203.7813 Q838,204.0625 838,204.7188 L838,206.2813 Q838,206.9375 837.7188,207.2188 Q837.4375,207.5 837,207.5 Q836.6094,207.5 836.3594,207.3281 Q836.1094,207.1563 836,206.7031 Q835.9531,206.3906 835.7813,206.2188 Q835.4688,205.8906 834.9063,205.7031 Q834.3438,205.5 833.7813,205.5 Q833.0781,205.5 832.4844,205.7813 Q831.9063,206.0625 831.4531,206.6875 Q831,207.3125 831,208.1719 L831,209.0938 Q831,210.125 831.8438,210.8125 Q832.6875,211.5 834.1875,211.5 Q835.0781,211.5 835.7031,211.2969 Q836.0625,211.1875 836.4688,210.8281 Q836.7344,210.625 836.875,210.5625 Q837.0156,210.5 837.1875,210.5 Q837.5156,210.5 837.75,210.7656 Q838,211.0156 838,211.375 Q838,211.7188 837.6563,212.125 Q837.1563,212.7188 836.3594,213.0469 Q835.3125,213.5 834.0313,213.5 Q832.5313,213.5 831.3281,212.9063 Q830.3594,212.4375 829.6719,211.4219 Q829,210.4063 829,209.2031 L829,208.1094 Q829,206.8594 829.5938,205.7656 Q830.2031,204.6719 831.25,204.0938 Q832.3125,203.5 833.5,203.5 Q834.2188,203.5 834.8438,203.75 Q835.4688,204 836,204.5 Z " fill="#000000"/><text fill="#000000" font-family="sans-serif" font-size="12" lengthAdjust="spacing" textLength="30" x="848" y="212.9102">Logic</text><line style="stroke:#A80036;stroke-width:1.5;" x1="820" x2="880" y1="224" y2="224"/><line style="stroke:#A80036;stroke-width:1.5;" x1="820" x2="880" y1="232" y2="232"/><!--MD5=[ee4f560f9433c18621313010902609a0]
class SesionValue--><rect codeLine="15" fill="#FEFECE" filter="url(#f1qhq7g2rqu5tq)" height="48" id="SesionValue" style="stroke:#A80036;stroke-width:1.5;" width="102" x="799" y="316"/><ellipse cx="814" cy="332" fill="#EB937F" rx="11" ry="11" style="stroke:#A80036;stroke-width:1.0;"/><path d="M812.5,333 L812.5,335 L816.5,335 L816.5,334 L816.5,333.5156 L817.125,333 L817.5,333 L817.875,333 L818.5,333.5156 L818.5,334 L818.5,337 L810.5,337 L810.0156,337 L809.5,336.375 L809.5,336 L809.5,335.625 L810.0156,335 L810.5,335 L810.5,335 L810.5,329 L810.5,329 L810.0156,329 L809.5,328.375 L809.5,328 L809.5,327.625 L810.0156,327 L810.5,327 L818.5,327 L818.5,330 L818.5,330.4844 L817.875,331 L817.5,331 L817.125,331 L816.5,330.4844 L816.5,330 L816.5,329 L812.5,329 L812.5,331 L813.5,331 L813.5,330.5156 L813.5,330.5156 L814.125,330 L814.5,330 L814.875,330 L815.5,330.5156 L815.5,331 L815.5,333 L815.5,333.4844 L814.875,334 L814.875,334 L814.5,334 L814.125,334 L813.5,333.4844 L813.5,333.4844 L813.5,333 L812.5,333 Z " fill="#000000"/><text fill="#000000" font-family="sans-serif" font-size="12" lengthAdjust="spacing" textLength="70" x="828" y="336.9102">SesionValue</text><line style="stroke:#A80036;stroke-width:1.5;" x1="800" x2="900" y1="348" y2="348"/><line style="stroke:#A80036;stroke-width:1.5;" x1="800" x2="900" y1="356" y2="356"/><!--MD5=[1d7ba1c7002d54515419844fbd155368]
class Controller--><rect codeLine="16" fill="#FEFECE" filter="url(#f1qhq7g2rqu5tq)" height="48" id="Controller" style="stroke:#A80036;stroke-width:1.5;" width="86" x="967" y="316"/><ellipse cx="982" cy="332" fill="#A9DCDF" rx="11" ry="11" style="stroke:#A80036;stroke-width:1.0;"/><path d="M983.75,333.5 L980.4531,333.5 L980.0156,334.5 L980.0156,334.5 L980.4844,334.5 L981,335.125 L981,335.5 L981,335.875 L980.4844,336.5 L980.0156,336.5 L978.125,336.5 L977.5156,336.5 L977,335.875 L977,335.5 L977,335.125 L977.5156,334.5 L978.125,334.5 L980.4375,328.5 L979.5625,328.5 L978.5156,328.5 L978,327.875 L978,327.5 L978,327.125 L978.5156,326.5 L979.5625,326.5 L983.2344,326.5 L985.9219,334.5 L986.4844,334.5 L986.4844,334.5 L987,335.125 L987,335.5 L987,335.875 L986.4844,336.5 L985.9219,336.5 L984.0313,336.5 L983.5156,336.5 L983,335.875 L983,335.5 L983,335.125 L983.5156,334.5 L984.0313,334.5 L984.0313,334.5 L983.75,333.5 Z M983.2031,331.5 L982,327.9219 L980.9688,331.5 L983.2031,331.5 Z " fill="#000000"/><text fill="#000000" font-family="sans-serif" font-size="12" font-style="italic" lengthAdjust="spacing" textLength="54" x="996" y="336.9102">Controller</text><line style="stroke:#A80036;stroke-width:1.5;" x1="968" x2="1052" y1="348" y2="348"/><line style="stroke:#A80036;stroke-width:1.5;" x1="968" x2="1052" y1="356" y2="356"/><!--MD5=[47c371471411cfedeee61b1a5bdaee47]
class StartController--><rect codeLine="17" fill="#FEFECE" filter="url(#f1qhq7g2rqu5tq)" height="48" id="StartController" style="stroke:#A80036;stroke-width:1.5;" width="111" x="767.5" y="438"/><ellipse cx="782.5" cy="454" fill="#ADD1B2" rx="11" ry="11" style="stroke:#A80036;stroke-width:1.0;"/><path d="M784.5,450.5 Q784.7031,450 784.9375,449.75 Q785.1719,449.5 785.4375,449.5 Q785.9063,449.5 786.2031,449.7813 Q786.5,450.0625 786.5,450.7188 L786.5,452.2813 Q786.5,452.9375 786.2188,453.2188 Q785.9375,453.5 785.5,453.5 Q785.1094,453.5 784.8594,453.3281 Q784.6094,453.1563 784.5,452.7031 Q784.4531,452.3906 784.2813,452.2188 Q783.9688,451.8906 783.4063,451.7031 Q782.8438,451.5 782.2813,451.5 Q781.5781,451.5 780.9844,451.7813 Q780.4063,452.0625 779.9531,452.6875 Q779.5,453.3125 779.5,454.1719 L779.5,455.0938 Q779.5,456.125 780.3438,456.8125 Q781.1875,457.5 782.6875,457.5 Q783.5781,457.5 784.2031,457.2969 Q784.5625,457.1875 784.9688,456.8281 Q785.2344,456.625 785.375,456.5625 Q785.5156,456.5 785.6875,456.5 Q786.0156,456.5 786.25,456.7656 Q786.5,457.0156 786.5,457.375 Q786.5,457.7188 786.1563,458.125 Q785.6563,458.7188 784.8594,459.0469 Q783.8125,459.5 782.5313,459.5 Q781.0313,459.5 779.8281,458.9063 Q778.8594,458.4375 778.1719,457.4219 Q777.5,456.4063 777.5,455.2031 L777.5,454.1094 Q777.5,452.8594 778.0938,451.7656 Q778.7031,450.6719 779.75,450.0938 Q780.8125,449.5 782,449.5 Q782.7188,449.5 783.3438,449.75 Q783.9688,450 784.5,450.5 Z " fill="#000000"/><text fill="#000000" font-family="sans-serif" font-size="12" lengthAdjust="spacing" textLength="79" x="796.5" y="458.9102">StartController</text><line style="stroke:#A80036;stroke-width:1.5;" x1="768.5" x2="877.5" y1="470" y2="470"/><line style="stroke:#A80036;stroke-width:1.5;" x1="768.5" x2="877.5" y1="478" y2="478"/><!--MD5=[4fcc3d7338e72a744d3bcdf244a69025]
class ProposedWordController--><rect codeLine="18" fill="#FEFECE" filter="url(#f1qhq7g2rqu5tq)" height="75.6719" id="ProposedWordController" style="stroke:#A80036;stroke-width:1.5;" width="193" x="913.5" y="424"/><ellipse cx="939.3" cy="440" fill="#ADD1B2" rx="11" ry="11" style="stroke:#A80036;stroke-width:1.0;"/><path d="M941.3,436.5 Q941.5031,436 941.7375,435.75 Q941.9719,435.5 942.2375,435.5 Q942.7063,435.5 943.0031,435.7813 Q943.3,436.0625 943.3,436.7188 L943.3,438.2813 Q943.3,438.9375 943.0188,439.2188 Q942.7375,439.5 942.3,439.5 Q941.9094,439.5 941.6594,439.3281 Q941.4094,439.1563 941.3,438.7031 Q941.2531,438.3906 941.0813,438.2188 Q940.7688,437.8906 940.2063,437.7031 Q939.6438,437.5 939.0813,437.5 Q938.3781,437.5 937.7844,437.7813 Q937.2063,438.0625 936.7531,438.6875 Q936.3,439.3125 936.3,440.1719 L936.3,441.0938 Q936.3,442.125 937.1438,442.8125 Q937.9875,443.5 939.4875,443.5 Q940.3781,443.5 941.0031,443.2969 Q941.3625,443.1875 941.7688,442.8281 Q942.0344,442.625 942.175,442.5625 Q942.3156,442.5 942.4875,442.5 Q942.8156,442.5 943.05,442.7656 Q943.3,443.0156 943.3,443.375 Q943.3,443.7188 942.9563,444.125 Q942.4563,444.7188 941.6594,445.0469 Q940.6125,445.5 939.3313,445.5 Q937.8313,445.5 936.6281,444.9063 Q935.6594,444.4375 934.9719,443.4219 Q934.3,442.4063 934.3,441.2031 L934.3,440.1094 Q934.3,438.8594 934.8938,437.7656 Q935.5031,436.6719 936.55,436.0938 Q937.6125,435.5 938.8,435.5 Q939.5188,435.5 940.1438,435.75 Q940.7688,436 941.3,436.5 Z " fill="#000000"/><text fill="#000000" font-family="sans-serif" font-size="12" lengthAdjust="spacing" textLength="137" x="955.7" y="444.9102">ProposedWordController</text><line style="stroke:#A80036;stroke-width:1.5;" x1="914.5" x2="1105.5" y1="456" y2="456"/><rect fill="none" height="6" style="stroke:#C82930;stroke-width:1.0;" width="6" x="921.5" y="464"/><text fill="#000000" font-family="sans-serif" font-size="11" lengthAdjust="spacing" textLength="55" x="933.5" y="471.4189">Word word</text><line style="stroke:#A80036;stroke-width:1.5;" x1="914.5" x2="1105.5" y1="477.8359" y2="477.8359"/><ellipse cx="924.5" cy="488.8359" fill="#84BE84" rx="3" ry="3" style="stroke:#038048;stroke-width:1.0;"/><text fill="#000000" font-family="sans-serif" font-size="11" lengthAdjust="spacing" textLength="167" x="933.5" y="493.2549">findCharacterInWord(char) : char[]</text><!--MD5=[f25ee20dba692cd6c0e95111d247e8f6]
class EndController--><rect codeLine="23" fill="#FEFECE" filter="url(#f1qhq7g2rqu5tq)" height="48" id="EndController" style="stroke:#A80036;stroke-width:1.5;" width="108" x="1142" y="438"/><ellipse cx="1157" cy="454" fill="#ADD1B2" rx="11" ry="11" style="stroke:#A80036;stroke-width:1.0;"/><path d="M1159,450.5 Q1159.2031,450 1159.4375,449.75 Q1159.6719,449.5 1159.9375,449.5 Q1160.4063,449.5 1160.7031,449.7813 Q1161,450.0625 1161,450.7188 L1161,452.2813 Q1161,452.9375 1160.7188,453.2188 Q1160.4375,453.5 1160,453.5 Q1159.6094,453.5 1159.3594,453.3281 Q1159.1094,453.1563 1159,452.7031 Q1158.9531,452.3906 1158.7813,452.2188 Q1158.4688,451.8906 1157.9063,451.7031 Q1157.3438,451.5 1156.7813,451.5 Q1156.0781,451.5 1155.4844,451.7813 Q1154.9063,452.0625 1154.4531,452.6875 Q1154,453.3125 1154,454.1719 L1154,455.0938 Q1154,456.125 1154.8438,456.8125 Q1155.6875,457.5 1157.1875,457.5 Q1158.0781,457.5 1158.7031,457.2969 Q1159.0625,457.1875 1159.4688,456.8281 Q1159.7344,456.625 1159.875,456.5625 Q1160.0156,456.5 1160.1875,456.5 Q1160.5156,456.5 1160.75,456.7656 Q1161,457.0156 1161,457.375 Q1161,457.7188 1160.6563,458.125 Q1160.1563,458.7188 1159.3594,459.0469 Q1158.3125,459.5 1157.0313,459.5 Q1155.5313,459.5 1154.3281,458.9063 Q1153.3594,458.4375 1152.6719,457.4219 Q1152,456.4063 1152,455.2031 L1152,454.1094 Q1152,452.8594 1152.5938,451.7656 Q1153.2031,450.6719 1154.25,450.0938 Q1155.3125,449.5 1156.5,449.5 Q1157.2188,449.5 1157.8438,449.75 Q1158.4688,450 1159,450.5 Z " fill="#000000"/><text fill="#000000" font-family="sans-serif" font-size="12" lengthAdjust="spacing" textLength="76" x="1171" y="458.9102">EndController</text><line style="stroke:#A80036;stroke-width:1.5;" x1="1143" x2="1249" y1="470" y2="470"/><line style="stroke:#A80036;stroke-width:1.5;" x1="1143" x2="1249" y1="478" y2="478"/><!--MD5=[07513b2cfa2016c46090541be20532fe]
class Word--><rect codeLine="30" fill="#FEFECE" filter="url(#f1qhq7g2rqu5tq)" height="89.5078" id="Word" style="stroke:#A80036;stroke-width:1.5;" width="128" x="32" y="42"/><ellipse cx="77.25" cy="58" fill="#ADD1B2" rx="11" ry="11" style="stroke:#A80036;stroke-width:1.0;"/><path d="M79.25,54.5 Q79.4531,54 79.6875,53.75 Q79.9219,53.5 80.1875,53.5 Q80.6563,53.5 80.9531,53.7813 Q81.25,54.0625 81.25,54.7188 L81.25,56.2813 Q81.25,56.9375 80.9688,57.2188 Q80.6875,57.5 80.25,57.5 Q79.8594,57.5 79.6094,57.3281 Q79.3594,57.1563 79.25,56.7031 Q79.2031,56.3906 79.0313,56.2188 Q78.7188,55.8906 78.1563,55.7031 Q77.5938,55.5 77.0313,55.5 Q76.3281,55.5 75.7344,55.7813 Q75.1563,56.0625 74.7031,56.6875 Q74.25,57.3125 74.25,58.1719 L74.25,59.0938 Q74.25,60.125 75.0938,60.8125 Q75.9375,61.5 77.4375,61.5 Q78.3281,61.5 78.9531,61.2969 Q79.3125,61.1875 79.7188,60.8281 Q79.9844,60.625 80.125,60.5625 Q80.2656,60.5 80.4375,60.5 Q80.7656,60.5 81,60.7656 Q81.25,61.0156 81.25,61.375 Q81.25,61.7188 80.9063,62.125 Q80.4063,62.7188 79.6094,63.0469 Q78.5625,63.5 77.2813,63.5 Q75.7813,63.5 74.5781,62.9063 Q73.6094,62.4375 72.9219,61.4219 Q72.25,60.4063 72.25,59.2031 L72.25,58.1094 Q72.25,56.8594 72.8438,55.7656 Q73.4531,54.6719 74.5,54.0938 Q75.5625,53.5 76.75,53.5 Q77.4688,53.5 78.0938,53.75 Q78.7188,54 79.25,54.5 Z " fill="#000000"/><text fill="#000000" font-family="sans-serif" font-size="12" lengthAdjust="spacing" textLength="29" x="97.75" y="62.9102">Word</text><line style="stroke:#A80036;stroke-width:1.5;" x1="33" x2="159" y1="74" y2="74"/><rect fill="none" height="6" style="stroke:#C82930;stroke-width:1.0;" width="6" x="40" y="82"/><text fill="#000000" font-family="sans-serif" font-size="11" lengthAdjust="spacing" textLength="57" x="52" y="89.4189">String word</text><line style="stroke:#A80036;stroke-width:1.5;" x1="33" x2="159" y1="95.8359" y2="95.8359"/><ellipse cx="43" cy="106.8359" fill="#84BE84" rx="3" ry="3" style="stroke:#038048;stroke-width:1.0;"/><text fill="#000000" font-family="sans-serif" font-size="11" lengthAdjust="spacing" textLength="102" x="52" y="111.2549">getLengthWord() : int</text><ellipse cx="43" cy="120.6719" fill="#84BE84" rx="3" ry="3" style="stroke:#038048;stroke-width:1.0;"/><text fill="#000000" font-family="sans-serif" font-size="11" lengthAdjust="spacing" textLength="86" x="52" y="125.0908">getWord() : String</text><!--MD5=[7dc9f4e9588c839c0e53a881b84874c2]
class HangedPart--><rect codeLine="35" fill="#FEFECE" filter="url(#f1qhq7g2rqu5tq)" height="48" id="HangedPart" style="stroke:#A80036;stroke-width:1.5;" width="98" x="195" y="63"/><ellipse cx="210" cy="79" fill="#ADD1B2" rx="11" ry="11" style="stroke:#A80036;stroke-width:1.0;"/><path d="M212,75.5 Q212.2031,75 212.4375,74.75 Q212.6719,74.5 212.9375,74.5 Q213.4063,74.5 213.7031,74.7813 Q214,75.0625 214,75.7188 L214,77.2813 Q214,77.9375 213.7188,78.2188 Q213.4375,78.5 213,78.5 Q212.6094,78.5 212.3594,78.3281 Q212.1094,78.1563 212,77.7031 Q211.9531,77.3906 211.7813,77.2188 Q211.4688,76.8906 210.9063,76.7031 Q210.3438,76.5 209.7813,76.5 Q209.0781,76.5 208.4844,76.7813 Q207.9063,77.0625 207.4531,77.6875 Q207,78.3125 207,79.1719 L207,80.0938 Q207,81.125 207.8438,81.8125 Q208.6875,82.5 210.1875,82.5 Q211.0781,82.5 211.7031,82.2969 Q212.0625,82.1875 212.4688,81.8281 Q212.7344,81.625 212.875,81.5625 Q213.0156,81.5 213.1875,81.5 Q213.5156,81.5 213.75,81.7656 Q214,82.0156 214,82.375 Q214,82.7188 213.6563,83.125 Q213.1563,83.7188 212.3594,84.0469 Q211.3125,84.5 210.0313,84.5 Q208.5313,84.5 207.3281,83.9063 Q206.3594,83.4375 205.6719,82.4219 Q205,81.4063 205,80.2031 L205,79.1094 Q205,77.8594 205.5938,76.7656 Q206.2031,75.6719 207.25,75.0938 Q208.3125,74.5 209.5,74.5 Q210.2188,74.5 210.8438,74.75 Q211.4688,75 212,75.5 Z " fill="#000000"/><text fill="#000000" font-family="sans-serif" font-size="12" lengthAdjust="spacing" textLength="66" x="224" y="83.9102">HangedPart</text><line style="stroke:#A80036;stroke-width:1.5;" x1="196" x2="292" y1="95" y2="95"/><line style="stroke:#A80036;stroke-width:1.5;" x1="196" x2="292" y1="103" y2="103"/><!--MD5=[dd91eae41778c45e12552e5329e240e8]
class Turn--><rect codeLine="37" fill="#FEFECE" filter="url(#f1qhq7g2rqu5tq)" height="48" id="Turn" style="stroke:#A80036;stroke-width:1.5;" width="57" x="328.5" y="63"/><ellipse cx="343.5" cy="79" fill="#ADD1B2" rx="11" ry="11" style="stroke:#A80036;stroke-width:1.0;"/><path d="M345.5,75.5 Q345.7031,75 345.9375,74.75 Q346.1719,74.5 346.4375,74.5 Q346.9063,74.5 347.2031,74.7813 Q347.5,75.0625 347.5,75.7188 L347.5,77.2813 Q347.5,77.9375 347.2188,78.2188 Q346.9375,78.5 346.5,78.5 Q346.1094,78.5 345.8594,78.3281 Q345.6094,78.1563 345.5,77.7031 Q345.4531,77.3906 345.2813,77.2188 Q344.9688,76.8906 344.4063,76.7031 Q343.8438,76.5 343.2813,76.5 Q342.5781,76.5 341.9844,76.7813 Q341.4063,77.0625 340.9531,77.6875 Q340.5,78.3125 340.5,79.1719 L340.5,80.0938 Q340.5,81.125 341.3438,81.8125 Q342.1875,82.5 343.6875,82.5 Q344.5781,82.5 345.2031,82.2969 Q345.5625,82.1875 345.9688,81.8281 Q346.2344,81.625 346.375,81.5625 Q346.5156,81.5 346.6875,81.5 Q347.0156,81.5 347.25,81.7656 Q347.5,82.0156 347.5,82.375 Q347.5,82.7188 347.1563,83.125 Q346.6563,83.7188 345.8594,84.0469 Q344.8125,84.5 343.5313,84.5 Q342.0313,84.5 340.8281,83.9063 Q339.8594,83.4375 339.1719,82.4219 Q338.5,81.4063 338.5,80.2031 L338.5,79.1094 Q338.5,77.8594 339.0938,76.7656 Q339.7031,75.6719 340.75,75.0938 Q341.8125,74.5 343,74.5 Q343.7188,74.5 344.3438,74.75 Q344.9688,75 345.5,75.5 Z " fill="#000000"/><text fill="#000000" font-family="sans-serif" font-size="12" lengthAdjust="spacing" textLength="25" x="357.5" y="83.9102">Turn</text><line style="stroke:#A80036;stroke-width:1.5;" x1="329.5" x2="384.5" y1="95" y2="95"/><line style="stroke:#A80036;stroke-width:1.5;" x1="329.5" x2="384.5" y1="103" y2="103"/><!--MD5=[2cb47ba637a0d19583e6199456f6ad0b]
class Player--><rect codeLine="38" fill="#FEFECE" filter="url(#f1qhq7g2rqu5tq)" height="48" id="Player" style="stroke:#A80036;stroke-width:1.5;" width="66" x="63" y="192"/><ellipse cx="78" cy="208" fill="#ADD1B2" rx="11" ry="11" style="stroke:#A80036;stroke-width:1.0;"/><path d="M80,204.5 Q80.2031,204 80.4375,203.75 Q80.6719,203.5 80.9375,203.5 Q81.4063,203.5 81.7031,203.7813 Q82,204.0625 82,204.7188 L82,206.2813 Q82,206.9375 81.7188,207.2188 Q81.4375,207.5 81,207.5 Q80.6094,207.5 80.3594,207.3281 Q80.1094,207.1563 80,206.7031 Q79.9531,206.3906 79.7813,206.2188 Q79.4688,205.8906 78.9063,205.7031 Q78.3438,205.5 77.7813,205.5 Q77.0781,205.5 76.4844,205.7813 Q75.9063,206.0625 75.4531,206.6875 Q75,207.3125 75,208.1719 L75,209.0938 Q75,210.125 75.8438,210.8125 Q76.6875,211.5 78.1875,211.5 Q79.0781,211.5 79.7031,211.2969 Q80.0625,211.1875 80.4688,210.8281 Q80.7344,210.625 80.875,210.5625 Q81.0156,210.5 81.1875,210.5 Q81.5156,210.5 81.75,210.7656 Q82,211.0156 82,211.375 Q82,211.7188 81.6563,212.125 Q81.1563,212.7188 80.3594,213.0469 Q79.3125,213.5 78.0313,213.5 Q76.5313,213.5 75.3281,212.9063 Q74.3594,212.4375 73.6719,211.4219 Q73,210.4063 73,209.2031 L73,208.1094 Q73,206.8594 73.5938,205.7656 Q74.2031,204.6719 75.25,204.0938 Q76.3125,203.5 77.5,203.5 Q78.2188,203.5 78.8438,203.75 Q79.4688,204 80,204.5 Z " fill="#000000"/><text fill="#000000" font-family="sans-serif" font-size="12" lengthAdjust="spacing" textLength="34" x="92" y="212.9102">Player</text><line style="stroke:#A80036;stroke-width:1.5;" x1="64" x2="128" y1="224" y2="224"/><line style="stroke:#A80036;stroke-width:1.5;" x1="64" x2="128" y1="232" y2="232"/><!--MD5=[099e1a61fb1247a2fb1eecef03d4d7bd]
class BoardPaper--><rect codeLine="39" fill="#FEFECE" filter="url(#f1qhq7g2rqu5tq)" height="48" id="BoardPaper" style="stroke:#A80036;stroke-width:1.5;" width="98" x="164" y="192"/><ellipse cx="179" cy="208" fill="#ADD1B2" rx="11" ry="11" style="stroke:#A80036;stroke-width:1.0;"/><path d="M181,204.5 Q181.2031,204 181.4375,203.75 Q181.6719,203.5 181.9375,203.5 Q182.4063,203.5 182.7031,203.7813 Q183,204.0625 183,204.7188 L183,206.2813 Q183,206.9375 182.7188,207.2188 Q182.4375,207.5 182,207.5 Q181.6094,207.5 181.3594,207.3281 Q181.1094,207.1563 181,206.7031 Q180.9531,206.3906 180.7813,206.2188 Q180.4688,205.8906 179.9063,205.7031 Q179.3438,205.5 178.7813,205.5 Q178.0781,205.5 177.4844,205.7813 Q176.9063,206.0625 176.4531,206.6875 Q176,207.3125 176,208.1719 L176,209.0938 Q176,210.125 176.8438,210.8125 Q177.6875,211.5 179.1875,211.5 Q180.0781,211.5 180.7031,211.2969 Q181.0625,211.1875 181.4688,210.8281 Q181.7344,210.625 181.875,210.5625 Q182.0156,210.5 182.1875,210.5 Q182.5156,210.5 182.75,210.7656 Q183,211.0156 183,211.375 Q183,211.7188 182.6563,212.125 Q182.1563,212.7188 181.3594,213.0469 Q180.3125,213.5 179.0313,213.5 Q177.5313,213.5 176.3281,212.9063 Q175.3594,212.4375 174.6719,211.4219 Q174,210.4063 174,209.2031 L174,208.1094 Q174,206.8594 174.5938,205.7656 Q175.2031,204.6719 176.25,204.0938 Q177.3125,203.5 178.5,203.5 Q179.2188,203.5 179.8438,203.75 Q180.4688,204 181,204.5 Z " fill="#000000"/><text fill="#000000" font-family="sans-serif" font-size="12" lengthAdjust="spacing" textLength="66" x="193" y="212.9102">BoardPaper</text><line style="stroke:#A80036;stroke-width:1.5;" x1="165" x2="261" y1="224" y2="224"/><line style="stroke:#A80036;stroke-width:1.5;" x1="165" x2="261" y1="232" y2="232"/><!--MD5=[511686e480a8766f0b494fb5fe2e6f11]
class ProposedCharController--><rect fill="#FEFECE" filter="url(#f1qhq7g2rqu5tq)" height="48" id="ProposedCharController" style="stroke:#A80036;stroke-width:1.5;" width="167" x="1285.5" y="438"/><ellipse cx="1300.5" cy="454" fill="#ADD1B2" rx="11" ry="11" style="stroke:#A80036;stroke-width:1.0;"/><path d="M1302.5,450.5 Q1302.7031,450 1302.9375,449.75 Q1303.1719,449.5 1303.4375,449.5 Q1303.9063,449.5 1304.2031,449.7813 Q1304.5,450.0625 1304.5,450.7188 L1304.5,452.2813 Q1304.5,452.9375 1304.2188,453.2188 Q1303.9375,453.5 1303.5,453.5 Q1303.1094,453.5 1302.8594,453.3281 Q1302.6094,453.1563 1302.5,452.7031 Q1302.4531,452.3906 1302.2813,452.2188 Q1301.9688,451.8906 1301.4063,451.7031 Q1300.8438,451.5 1300.2813,451.5 Q1299.5781,451.5 1298.9844,451.7813 Q1298.4063,452.0625 1297.9531,452.6875 Q1297.5,453.3125 1297.5,454.1719 L1297.5,455.0938 Q1297.5,456.125 1298.3438,456.8125 Q1299.1875,457.5 1300.6875,457.5 Q1301.5781,457.5 1302.2031,457.2969 Q1302.5625,457.1875 1302.9688,456.8281 Q1303.2344,456.625 1303.375,456.5625 Q1303.5156,456.5 1303.6875,456.5 Q1304.0156,456.5 1304.25,456.7656 Q1304.5,457.0156 1304.5,457.375 Q1304.5,457.7188 1304.1563,458.125 Q1303.6563,458.7188 1302.8594,459.0469 Q1301.8125,459.5 1300.5313,459.5 Q1299.0313,459.5 1297.8281,458.9063 Q1296.8594,458.4375 1296.1719,457.4219 Q1295.5,456.4063 1295.5,455.2031 L1295.5,454.1094 Q1295.5,452.8594 1296.0938,451.7656 Q1296.7031,450.6719 1297.75,450.0938 Q1298.8125,449.5 1300,449.5 Q1300.7188,449.5 1301.3438,449.75 Q1301.9688,450 1302.5,450.5 Z " fill="#000000"/><text fill="#000000" font-family="sans-serif" font-size="12" lengthAdjust="spacing" textLength="135" x="1314.5" y="458.9102">ProposedCharController</text><line style="stroke:#A80036;stroke-width:1.5;" x1="1286.5" x2="1451.5" y1="470" y2="470"/><line style="stroke:#A80036;stroke-width:1.5;" x1="1286.5" x2="1451.5" y1="478" y2="478"/><!--MD5=[98c712d6c16a4ce2e31b2930753001e2]
link Hanged to View--><path codeLine="41" d="M733.1971,120.0859 C733.1971,120.0859 692.94,163.41 675.45,182.22 " fill="none" id="Hanged-View" style="stroke:#A80036;stroke-width:1.0;"/><polygon fill="#A80036" points="666.51,191.85,675.5672,187.9813,669.9142,188.1878,669.7077,182.5347,666.51,191.85" style="stroke:#A80036;stroke-width:1.0;"/><line style="stroke:#A80036;stroke-width:1.0;" x1="669.9142" x2="675.355" y1="188.1878" y2="182.33"/><polygon fill="#A80036" points="741.36,111.29,734.3466,112.967,733.1971,120.0859,740.2105,118.4089,741.36,111.29" style="stroke:#A80036;stroke-width:1.0;"/><!--MD5=[34ad7eb222c81a08ccc175dd3309ae0c]
link Hanged to Logic--><path codeLine="42" d="M785.7376,121.1927 C785.7376,121.1927 814.31,162.9 826.79,181.12 " fill="none" id="Hanged-Logic" style="stroke:#A80036;stroke-width:1.0;"/><polygon fill="#A80036" points="834.14,191.85,832.3577,182.1638,831.316,187.7239,825.7559,186.6822,834.14,191.85" style="stroke:#A80036;stroke-width:1.0;"/><line style="stroke:#A80036;stroke-width:1.0;" x1="831.316" x2="826.795" y1="187.7239" y2="181.13"/><polygon fill="#A80036" points="778.96,111.29,779.0479,118.5006,785.7376,121.1927,785.6497,113.9822,778.96,111.29" style="stroke:#A80036;stroke-width:1.0;"/><!--MD5=[659ed500b9b8ead0181f4562a7521276]
link Logic to Controller--><path codeLine="43" d="M890.0128,247.5057 C890.0128,247.5057 945.15,289.56 969.11,307.83 " fill="none" id="Logic-Controller" style="stroke:#A80036;stroke-width:1.0;"/><polygon fill="#A80036" points="979.64,315.85,974.9006,307.2164,975.6612,312.8219,970.0557,313.5825,979.64,315.85" style="stroke:#A80036;stroke-width:1.0;"/><line style="stroke:#A80036;stroke-width:1.0;" x1="975.6612" x2="969.305" y1="312.8219" y2="307.97"/><polygon fill="#FFFFFF" points="880.47,240.23,882.8161,247.0488,890.0128,247.5057,887.6666,240.6869,880.47,240.23" style="stroke:#A80036;stroke-width:1.0;"/><!--MD5=[d97c95d7197a20d753a2598eef0a9990]
reverse link View to StartView--><path codeLine="44" d="M645,260.27 C645,279.01 645,300.18 645,315.85 " fill="none" id="View-backto-StartView" style="stroke:#A80036;stroke-width:1.0;"/><polygon fill="none" points="638,260.23,645,240.23,652,260.23,638,260.23" style="stroke:#A80036;stroke-width:1.0;"/><!--MD5=[c2498cadc8432f567dbe81f01cb7b226]
reverse link View to InGameView--><path codeLine="45" d="M605.05,254.03 C598.66,260.02 592.13,266.16 586,272 C570.76,286.5 553.8,302.96 540.52,315.93 " fill="none" id="View-backto-InGameView" style="stroke:#A80036;stroke-width:1.0;"/><polygon fill="none" points="600.52,248.69,619.92,240.17,610.07,258.93,600.52,248.69" style="stroke:#A80036;stroke-width:1.0;"/><!--MD5=[354d6deacb49030493b7fd8cb23ebdce]
reverse link Controller to StartController--><path codeLine="47" d="M967.43,376.93 C952.55,388.74 935.45,401.52 919,412 C917.71,412.82 892.6,425.63 868.39,437.95 " fill="none" id="Controller-backto-StartController" style="stroke:#A80036;stroke-width:1.0;"/><polygon fill="none" points="963.19,371.35,983.13,364.18,972.02,382.22,963.19,371.35" style="stroke:#A80036;stroke-width:1.0;"/><!--MD5=[f4337827677e4d3e764b574c89ecaffa]
reverse link Controller to ProposedWordController--><path codeLine="48" d="M1010,384.34 C1010,397.26 1010,411.29 1010,423.77 " fill="none" id="Controller-backto-ProposedWordController" style="stroke:#A80036;stroke-width:1.0;"/><polygon fill="none" points="1003,384.14,1010,364.14,1017,384.14,1003,384.14" style="stroke:#A80036;stroke-width:1.0;"/><!--MD5=[4b5fd7361db02086857604741f8a4753]
reverse link Controller to ProposedCharController--><path codeLine="49" d="M1072.51,360.67 C1124.46,377.15 1200.23,401.53 1266,424 C1278.95,428.42 1292.76,433.28 1305.92,437.99 " fill="none" id="Controller-backto-ProposedCharController" style="stroke:#A80036;stroke-width:1.0;"/><polygon fill="none" points="1070.12,367.25,1053.17,354.54,1074.35,353.9,1070.12,367.25" style="stroke:#A80036;stroke-width:1.0;"/><!--MD5=[2fb970939bfdd83753cb735b37d8ddc8]
reverse link Controller to EndController--><path codeLine="50" d="M1062.76,375.04 C1093.95,395.16 1132.62,420.11 1160.25,437.93 " fill="none" id="Controller-backto-EndController" style="stroke:#A80036;stroke-width:1.0;"/><polygon fill="none" points="1058.87,380.86,1045.86,364.14,1066.46,369.1,1058.87,380.86" style="stroke:#A80036;stroke-width:1.0;"/><!--MD5=[1df94896617dd62ae80c80e9749abfc4]
link Logic to SesionValue--><path codeLine="52" d="M850,252.23 C850,252.23 850,286.95 850,302.46 " fill="none" id="Logic-SesionValue" style="stroke:#A80036;stroke-width:1.0;"/><polygon fill="#A80036" points="850,315.85,854,306.85,850,310.85,846,306.85,850,315.85" style="stroke:#A80036;stroke-width:1.0;"/><line style="stroke:#A80036;stroke-width:1.0;" x1="850" x2="850" y1="310.85" y2="302.85"/><polygon fill="#FFFFFF" points="850,240.23,846,246.23,850,252.23,854,246.23,850,240.23" style="stroke:#A80036;stroke-width:1.0;"/><!--MD5=[758d30744a024e36fd6df258d8fd2d41]
link Word to HangedPart--><!--MD5=[c6f917114e7131cd10a00160d6dc7d19]
link HangedPart to Turn--><!--MD5=[0236ff1234b104134e31c5cff154e923]
link Word to Player--><!--MD5=[f30a89c35a87c03cf60b1fdd5b07a57e]
link Player to BoardPaper--><!--MD5=[b96b8306f9005a558827c65d69bb8145]
@startuml
package "main" {
class Hanged
}

package "views"{
abstract class View
    package "console" {
        class StartView
        class InGameView
    }
}

package "controllers"{
class Logic
enum SesionValue
abstract class Controller
class StartController
class ProposedWordController{
- Word word

+ findCharacterInWord(char) : char[]
}
class EndController


}


package "models" {
class Word{
- String word
+ getLengthWord() : int
+ getWord() : String
}
class HangedPart{
}
class Turn
class Player
class BoardPaper
}
Hanged *- -> View
Hanged *- -> Logic
Logic o- -> Controller
View <|- - StartView
View <|- - InGameView

Controller <|- - StartController
Controller <|- - ProposedWordController
Controller <|- - ProposedCharController
Controller <|- - EndController

Logic o- -> SesionValue



@enduml

PlantUML version 1.2021.7(Sun May 23 14:40:07 CEST 2021)
(GPL source distribution)
Java Runtime: OpenJDK Runtime Environment
JVM: OpenJDK 64-Bit Server VM
Default Encoding: Cp1252
Language: es
Country: ES
--></g></svg>