<?xml version="1.0" encoding="UTF-8" standalone="no"?><svg xmlns="http://www.w3.org/2000/svg" xmlns:xlink="http://www.w3.org/1999/xlink" contentScriptType="application/ecmascript" contentStyleType="text/css" height="328.3px" preserveAspectRatio="none" style="width:1215px;height:328px;background:#FFFFFF;" version="1.1" viewBox="0 0 1215 328" width="1215.2px" zoomAndPan="magnify"><defs><filter height="300%" id="finmmws1ts6a0" width="300%" x="-1" y="-1"><feGaussianBlur result="blurOut" stdDeviation="1.3999999999999997"/><feColorMatrix in="blurOut" result="blurOut2" type="matrix" values="0 0 0 0 0 0 0 0 0 0 0 0 0 0 0 0 0 0 .4 0"/><feOffset dx="2.7999999999999994" dy="2.7999999999999994" in="blurOut2" result="blurOut3"/><feBlend in="SourceGraphic" in2="blurOut3" mode="normal"/></filter></defs><g><!--MD5=[a70b0d373322012744ecc119c63f921b]
cluster main--><polygon fill="#FFFFFF" filter="url(#finmmws1ts6a0)" points="684.6,4.2,711.9,4.2,716.8,20.7266,760.2,20.7266,760.2,74.2,684.6,74.2,684.6,4.2" style="stroke:#000000;stroke-width:1.0499999999999998;"/><line style="stroke:#000000;stroke-width:1.0499999999999998;" x1="684.6" x2="716.8" y1="20.7266" y2="20.7266"/><text fill="#000000" font-family="sans-serif" font-size="9.8" font-weight="bold" lengthAdjust="spacing" textLength="23.1" x="687.4" y="15.7732">main</text><!--MD5=[e2a75efa8a0f57c2afae8bf75386f79c]
cluster views--><polygon fill="#FFFFFF" filter="url(#finmmws1ts6a0)" points="490.7,91,523.6,91,528.5,107.5266,701.4,107.5266,701.4,264.6,490.7,264.6,490.7,91" style="stroke:#000000;stroke-width:1.0499999999999998;"/><line style="stroke:#000000;stroke-width:1.0499999999999998;" x1="490.7" x2="528.5" y1="107.5266" y2="107.5266"/><text fill="#000000" font-family="sans-serif" font-size="9.8" font-weight="bold" lengthAdjust="spacing" textLength="28.7" x="493.5" y="102.5732">views</text><!--MD5=[4b7a55d430ce43d42ce9ebad9e6b4010]
cluster console--><polygon fill="#FFFFFF" filter="url(#finmmws1ts6a0)" points="507.5,177.8,550.9,177.8,555.8,194.3266,684.6,194.3266,684.6,247.8,507.5,247.8,507.5,177.8" style="stroke:#000000;stroke-width:1.0499999999999998;"/><line style="stroke:#000000;stroke-width:1.0499999999999998;" x1="507.5" x2="555.8" y1="194.3266" y2="194.3266"/><text fill="#000000" font-family="sans-serif" font-size="9.8" font-weight="bold" lengthAdjust="spacing" textLength="39.2" x="510.3" y="189.3732">console</text><!--MD5=[f4e70ef68289585296b9045165e58692]
cluster controllers--><polygon fill="#FFFFFF" filter="url(#finmmws1ts6a0)" points="718.2,91,776.3,91,781.2,107.5266,1203.3,107.5266,1203.3,323.4,718.2,323.4,718.2,91" style="stroke:#000000;stroke-width:1.0499999999999998;"/><line style="stroke:#000000;stroke-width:1.0499999999999998;" x1="718.2" x2="781.2" y1="107.5266" y2="107.5266"/><text fill="#000000" font-family="sans-serif" font-size="9.8" font-weight="bold" lengthAdjust="spacing" textLength="53.9" x="721" y="102.5732">controllers</text><!--MD5=[a60570e4b426f702ccbb0d459e3b9417]
cluster models--><polygon fill="#FFFFFF" filter="url(#finmmws1ts6a0)" points="11.2,4.2,51.1,4.2,56,20.7266,473.9,20.7266,473.9,161,11.2,161,11.2,4.2" style="stroke:#000000;stroke-width:1.0499999999999998;"/><line style="stroke:#000000;stroke-width:1.0499999999999998;" x1="11.2" x2="56" y1="20.7266" y2="20.7266"/><text fill="#000000" font-family="sans-serif" font-size="9.8" font-weight="bold" lengthAdjust="spacing" textLength="35.7" x="14" y="15.7732">models</text><!--MD5=[d7ec263f7daf4a6472ede7f2d3e0d6e7]
class Hanged--><rect codeLine="2" fill="#FEFECE" filter="url(#finmmws1ts6a0)" height="33.6" id="Hanged" style="stroke:#A80036;stroke-width:1.0499999999999998;" width="53.2" x="695.8" y="29.4"/><ellipse cx="706.3" cy="40.6" fill="#ADD1B2" rx="7.7" ry="7.7" style="stroke:#A80036;stroke-width:0.6999999999999998;"/><path d="M707.7,38.15 Q707.8422,37.8 708.0062,37.625 Q708.1703,37.45 708.3562,37.45 Q708.6844,37.45 708.8922,37.6469 Q709.1,37.8437 709.1,38.3031 L709.1,39.3969 Q709.1,39.8562 708.9031,40.0531 Q708.7062,40.25 708.4,40.25 Q708.1266,40.25 707.9516,40.1297 Q707.7766,40.0094 707.7,39.6922 Q707.6672,39.4734 707.5469,39.3531 Q707.3281,39.1234 706.9344,38.9922 Q706.5406,38.85 706.1469,38.85 Q705.6547,38.85 705.2391,39.0469 Q704.8344,39.2437 704.5172,39.6812 Q704.2,40.1187 704.2,40.7203 L704.2,41.3656 Q704.2,42.0875 704.7906,42.5687 Q705.3812,43.05 706.4312,43.05 Q707.0547,43.05 707.4922,42.9078 Q707.7437,42.8312 708.0281,42.5797 Q708.2141,42.4375 708.3125,42.3937 Q708.4109,42.35 708.5312,42.35 Q708.7609,42.35 708.925,42.5359 Q709.1,42.7109 709.1,42.9625 Q709.1,43.2031 708.8594,43.4875 Q708.5094,43.9031 707.9516,44.1328 Q707.2187,44.45 706.3219,44.45 Q705.2719,44.45 704.4297,44.0344 Q703.7516,43.7062 703.2703,42.9953 Q702.8,42.2844 702.8,41.4422 L702.8,40.6766 Q702.8,39.8016 703.2156,39.0359 Q703.6422,38.2703 704.375,37.8656 Q705.1187,37.45 705.95,37.45 Q706.4531,37.45 706.8906,37.625 Q707.3281,37.8 707.7,38.15 Z " fill="#000000"/><text fill="#000000" font-family="sans-serif" font-size="8.4" lengthAdjust="spacing" textLength="30.8" x="716.1" y="44.0371">Hanged</text><line style="stroke:#A80036;stroke-width:1.0499999999999998;" x1="696.5" x2="748.3" y1="51.8" y2="51.8"/><line style="stroke:#A80036;stroke-width:1.0499999999999998;" x1="696.5" x2="748.3" y1="57.4" y2="57.4"/><!--MD5=[c045e12321b83266d36d22b9096c24ea]
class View--><rect codeLine="6" fill="#FEFECE" filter="url(#finmmws1ts6a0)" height="33.6" id="View" style="stroke:#A80036;stroke-width:1.0499999999999998;" width="40.6" x="623.7" y="116.2"/><ellipse cx="634.2" cy="127.4" fill="#A9DCDF" rx="7.7" ry="7.7" style="stroke:#A80036;stroke-width:0.6999999999999998;"/><path d="M635.425,128.45 L633.1172,128.45 L632.8109,129.15 L632.8109,129.15 L633.1391,129.15 L633.5,129.5875 L633.5,129.85 L633.5,130.1125 L633.1391,130.55 L632.8109,130.55 L631.4875,130.55 L631.0609,130.55 L630.7,130.1125 L630.7,129.85 L630.7,129.5875 L631.0609,129.15 L631.4875,129.15 L633.1062,124.95 L632.4937,124.95 L631.7609,124.95 L631.4,124.5125 L631.4,124.25 L631.4,123.9875 L631.7609,123.55 L632.4937,123.55 L635.0641,123.55 L636.9453,129.15 L637.3391,129.15 L637.3391,129.15 L637.7,129.5875 L637.7,129.85 L637.7,130.1125 L637.3391,130.55 L636.9453,130.55 L635.6219,130.55 L635.2609,130.55 L634.9,130.1125 L634.9,129.85 L634.9,129.5875 L635.2609,129.15 L635.6219,129.15 L635.6219,129.15 L635.425,128.45 Z M635.0422,127.05 L634.2,124.5453 L633.4781,127.05 L635.0422,127.05 Z " fill="#000000"/><text fill="#000000" font-family="sans-serif" font-size="8.4" font-style="italic" lengthAdjust="spacing" textLength="18.2" x="644" y="130.8371">View</text><line style="stroke:#A80036;stroke-width:1.0499999999999998;" x1="624.4" x2="663.6" y1="138.6" y2="138.6"/><line style="stroke:#A80036;stroke-width:1.0499999999999998;" x1="624.4" x2="663.6" y1="144.2" y2="144.2"/><!--MD5=[443c52daef265809fdf31be84fc8ae4a]
class StartView--><rect codeLine="8" fill="#FEFECE" filter="url(#finmmws1ts6a0)" height="33.6" id="StartView" style="stroke:#A80036;stroke-width:1.0499999999999998;" width="58.1" x="614.95" y="203"/><ellipse cx="625.45" cy="214.2" fill="#ADD1B2" rx="7.7" ry="7.7" style="stroke:#A80036;stroke-width:0.6999999999999998;"/><path d="M626.85,211.75 Q626.9922,211.4 627.1562,211.225 Q627.3203,211.05 627.5062,211.05 Q627.8344,211.05 628.0422,211.2469 Q628.25,211.4437 628.25,211.9031 L628.25,212.9969 Q628.25,213.4562 628.0531,213.6531 Q627.8562,213.85 627.55,213.85 Q627.2766,213.85 627.1016,213.7297 Q626.9266,213.6094 626.85,213.2922 Q626.8172,213.0734 626.6969,212.9531 Q626.4781,212.7234 626.0844,212.5922 Q625.6906,212.45 625.2969,212.45 Q624.8047,212.45 624.3891,212.6469 Q623.9844,212.8437 623.6672,213.2812 Q623.35,213.7187 623.35,214.3203 L623.35,214.9656 Q623.35,215.6875 623.9406,216.1687 Q624.5312,216.65 625.5812,216.65 Q626.2047,216.65 626.6422,216.5078 Q626.8937,216.4312 627.1781,216.1797 Q627.3641,216.0375 627.4625,215.9937 Q627.5609,215.95 627.6812,215.95 Q627.9109,215.95 628.075,216.1359 Q628.25,216.3109 628.25,216.5625 Q628.25,216.8031 628.0094,217.0875 Q627.6594,217.5031 627.1016,217.7328 Q626.3687,218.05 625.4719,218.05 Q624.4219,218.05 623.5797,217.6344 Q622.9016,217.3062 622.4203,216.5953 Q621.95,215.8844 621.95,215.0422 L621.95,214.2766 Q621.95,213.4016 622.3656,212.6359 Q622.7922,211.8703 623.525,211.4656 Q624.2687,211.05 625.1,211.05 Q625.6031,211.05 626.0406,211.225 Q626.4781,211.4 626.85,211.75 Z " fill="#000000"/><text fill="#000000" font-family="sans-serif" font-size="8.4" lengthAdjust="spacing" textLength="35.7" x="635.25" y="217.6371">StartView</text><line style="stroke:#A80036;stroke-width:1.0499999999999998;" x1="615.65" x2="672.35" y1="225.4" y2="225.4"/><line style="stroke:#A80036;stroke-width:1.0499999999999998;" x1="615.65" x2="672.35" y1="231" y2="231"/><!--MD5=[0c0ac116796a48fdc4c03542a0d43f99]
class InGameView--><rect codeLine="9" fill="#FEFECE" filter="url(#finmmws1ts6a0)" height="33.6" id="InGameView" style="stroke:#A80036;stroke-width:1.0499999999999998;" width="71.4" x="518.7" y="203"/><ellipse cx="529.2" cy="214.2" fill="#ADD1B2" rx="7.7" ry="7.7" style="stroke:#A80036;stroke-width:0.6999999999999998;"/><path d="M530.6,211.75 Q530.7422,211.4 530.9062,211.225 Q531.0703,211.05 531.2562,211.05 Q531.5844,211.05 531.7922,211.2469 Q532,211.4437 532,211.9031 L532,212.9969 Q532,213.4562 531.8031,213.6531 Q531.6062,213.85 531.3,213.85 Q531.0266,213.85 530.8516,213.7297 Q530.6766,213.6094 530.6,213.2922 Q530.5672,213.0734 530.4469,212.9531 Q530.2281,212.7234 529.8344,212.5922 Q529.4406,212.45 529.0469,212.45 Q528.5547,212.45 528.1391,212.6469 Q527.7344,212.8437 527.4172,213.2812 Q527.1,213.7187 527.1,214.3203 L527.1,214.9656 Q527.1,215.6875 527.6906,216.1687 Q528.2812,216.65 529.3312,216.65 Q529.9547,216.65 530.3922,216.5078 Q530.6437,216.4312 530.9281,216.1797 Q531.1141,216.0375 531.2125,215.9937 Q531.3109,215.95 531.4312,215.95 Q531.6609,215.95 531.825,216.1359 Q532,216.3109 532,216.5625 Q532,216.8031 531.7594,217.0875 Q531.4094,217.5031 530.8516,217.7328 Q530.1187,218.05 529.2219,218.05 Q528.1719,218.05 527.3297,217.6344 Q526.6516,217.3062 526.1703,216.5953 Q525.7,215.8844 525.7,215.0422 L525.7,214.2766 Q525.7,213.4016 526.1156,212.6359 Q526.5422,211.8703 527.275,211.4656 Q528.0187,211.05 528.85,211.05 Q529.3531,211.05 529.7906,211.225 Q530.2281,211.4 530.6,211.75 Z " fill="#000000"/><text fill="#000000" font-family="sans-serif" font-size="8.4" lengthAdjust="spacing" textLength="49" x="539" y="217.6371">InGameView</text><line style="stroke:#A80036;stroke-width:1.0499999999999998;" x1="519.4" x2="589.4" y1="225.4" y2="225.4"/><line style="stroke:#A80036;stroke-width:1.0499999999999998;" x1="519.4" x2="589.4" y1="231" y2="231"/><!--MD5=[42fa18dda7351a0ae87d9497de925436]
class Logic--><rect codeLine="14" fill="#FEFECE" filter="url(#finmmws1ts6a0)" height="33.6" id="Logic" style="stroke:#A80036;stroke-width:1.0499999999999998;" width="43.4" x="761.6" y="116.2"/><ellipse cx="772.1" cy="127.4" fill="#ADD1B2" rx="7.7" ry="7.7" style="stroke:#A80036;stroke-width:0.6999999999999998;"/><path d="M773.5,124.95 Q773.6422,124.6 773.8062,124.425 Q773.9703,124.25 774.1562,124.25 Q774.4844,124.25 774.6922,124.4469 Q774.9,124.6437 774.9,125.1031 L774.9,126.1969 Q774.9,126.6562 774.7031,126.8531 Q774.5062,127.05 774.2,127.05 Q773.9266,127.05 773.7516,126.9297 Q773.5766,126.8094 773.5,126.4922 Q773.4672,126.2734 773.3469,126.1531 Q773.1281,125.9234 772.7344,125.7922 Q772.3406,125.65 771.9469,125.65 Q771.4547,125.65 771.0391,125.8469 Q770.6344,126.0437 770.3172,126.4812 Q770,126.9187 770,127.5203 L770,128.1656 Q770,128.8875 770.5906,129.3687 Q771.1812,129.85 772.2312,129.85 Q772.8547,129.85 773.2922,129.7078 Q773.5437,129.6312 773.8281,129.3797 Q774.0141,129.2375 774.1125,129.1937 Q774.2109,129.15 774.3312,129.15 Q774.5609,129.15 774.725,129.3359 Q774.9,129.5109 774.9,129.7625 Q774.9,130.0031 774.6594,130.2875 Q774.3094,130.7031 773.7516,130.9328 Q773.0187,131.25 772.1219,131.25 Q771.0719,131.25 770.2297,130.8344 Q769.5516,130.5062 769.0703,129.7953 Q768.6,129.0844 768.6,128.2422 L768.6,127.4766 Q768.6,126.6016 769.0156,125.8359 Q769.4422,125.0703 770.175,124.6656 Q770.9187,124.25 771.75,124.25 Q772.2531,124.25 772.6906,124.425 Q773.1281,124.6 773.5,124.95 Z " fill="#000000"/><text fill="#000000" font-family="sans-serif" font-size="8.4" lengthAdjust="spacing" textLength="21" x="781.9" y="130.8371">Logic</text><line style="stroke:#A80036;stroke-width:1.0499999999999998;" x1="762.3" x2="804.3" y1="138.6" y2="138.6"/><line style="stroke:#A80036;stroke-width:1.0499999999999998;" x1="762.3" x2="804.3" y1="144.2" y2="144.2"/><!--MD5=[ee4f560f9433c18621313010902609a0]
class SesionValue--><rect codeLine="15" fill="#FEFECE" filter="url(#finmmws1ts6a0)" height="33.6" id="SesionValue" style="stroke:#A80036;stroke-width:1.0499999999999998;" width="71.4" x="747.6" y="203"/><ellipse cx="758.1" cy="214.2" fill="#EB937F" rx="7.7" ry="7.7" style="stroke:#A80036;stroke-width:0.6999999999999998;"/><path d="M757.05,214.9 L757.05,216.3 L759.85,216.3 L759.85,215.6 L759.85,215.2609 L760.2875,214.9 L760.55,214.9 L760.8125,214.9 L761.25,215.2609 L761.25,215.6 L761.25,217.7 L755.65,217.7 L755.3109,217.7 L754.95,217.2625 L754.95,217 L754.95,216.7375 L755.3109,216.3 L755.65,216.3 L755.65,216.3 L755.65,212.1 L755.65,212.1 L755.3109,212.1 L754.95,211.6625 L754.95,211.4 L754.95,211.1375 L755.3109,210.7 L755.65,210.7 L761.25,210.7 L761.25,212.8 L761.25,213.1391 L760.8125,213.5 L760.55,213.5 L760.2875,213.5 L759.85,213.1391 L759.85,212.8 L759.85,212.1 L757.05,212.1 L757.05,213.5 L757.75,213.5 L757.75,213.1609 L757.75,213.1609 L758.1875,212.8 L758.45,212.8 L758.7125,212.8 L759.15,213.1609 L759.15,213.5 L759.15,214.9 L759.15,215.2391 L758.7125,215.6 L758.7125,215.6 L758.45,215.6 L758.1875,215.6 L757.75,215.2391 L757.75,215.2391 L757.75,214.9 L757.05,214.9 Z " fill="#000000"/><text fill="#000000" font-family="sans-serif" font-size="8.4" lengthAdjust="spacing" textLength="49" x="767.9" y="217.6371">SesionValue</text><line style="stroke:#A80036;stroke-width:1.0499999999999998;" x1="748.3" x2="818.3" y1="225.4" y2="225.4"/><line style="stroke:#A80036;stroke-width:1.0499999999999998;" x1="748.3" x2="818.3" y1="231" y2="231"/><!--MD5=[1d7ba1c7002d54515419844fbd155368]
class Controller--><rect codeLine="16" fill="#FEFECE" filter="url(#finmmws1ts6a0)" height="33.6" id="Controller" style="stroke:#A80036;stroke-width:1.0499999999999998;" width="60.2" x="861" y="203"/><ellipse cx="871.5" cy="214.2" fill="#A9DCDF" rx="7.7" ry="7.7" style="stroke:#A80036;stroke-width:0.6999999999999998;"/><path d="M872.725,215.25 L870.4172,215.25 L870.1109,215.95 L870.1109,215.95 L870.4391,215.95 L870.8,216.3875 L870.8,216.65 L870.8,216.9125 L870.4391,217.35 L870.1109,217.35 L868.7875,217.35 L868.3609,217.35 L868,216.9125 L868,216.65 L868,216.3875 L868.3609,215.95 L868.7875,215.95 L870.4062,211.75 L869.7937,211.75 L869.0609,211.75 L868.7,211.3125 L868.7,211.05 L868.7,210.7875 L869.0609,210.35 L869.7937,210.35 L872.3641,210.35 L874.2453,215.95 L874.6391,215.95 L874.6391,215.95 L875,216.3875 L875,216.65 L875,216.9125 L874.6391,217.35 L874.2453,217.35 L872.9219,217.35 L872.5609,217.35 L872.2,216.9125 L872.2,216.65 L872.2,216.3875 L872.5609,215.95 L872.9219,215.95 L872.9219,215.95 L872.725,215.25 Z M872.3422,213.85 L871.5,211.3453 L870.7781,213.85 L872.3422,213.85 Z " fill="#000000"/><text fill="#000000" font-family="sans-serif" font-size="8.4" font-style="italic" lengthAdjust="spacing" textLength="37.8" x="881.3" y="217.6371">Controller</text><line style="stroke:#A80036;stroke-width:1.0499999999999998;" x1="861.7" x2="920.5" y1="225.4" y2="225.4"/><line style="stroke:#A80036;stroke-width:1.0499999999999998;" x1="861.7" x2="920.5" y1="231" y2="231"/><!--MD5=[47c371471411cfedeee61b1a5bdaee47]
class StartController--><rect codeLine="17" fill="#FEFECE" filter="url(#finmmws1ts6a0)" height="33.6" id="StartController" style="stroke:#A80036;stroke-width:1.0499999999999998;" width="77.7" x="729.75" y="278.6"/><ellipse cx="740.25" cy="289.8" fill="#ADD1B2" rx="7.7" ry="7.7" style="stroke:#A80036;stroke-width:0.6999999999999998;"/><path d="M741.65,287.35 Q741.7922,287 741.9562,286.825 Q742.1203,286.65 742.3062,286.65 Q742.6344,286.65 742.8422,286.8469 Q743.05,287.0437 743.05,287.5031 L743.05,288.5969 Q743.05,289.0562 742.8531,289.2531 Q742.6562,289.45 742.35,289.45 Q742.0766,289.45 741.9016,289.3297 Q741.7266,289.2094 741.65,288.8922 Q741.6172,288.6734 741.4969,288.5531 Q741.2781,288.3234 740.8844,288.1922 Q740.4906,288.05 740.0969,288.05 Q739.6047,288.05 739.1891,288.2469 Q738.7844,288.4437 738.4672,288.8812 Q738.15,289.3187 738.15,289.9203 L738.15,290.5656 Q738.15,291.2875 738.7406,291.7687 Q739.3312,292.25 740.3812,292.25 Q741.0047,292.25 741.4422,292.1078 Q741.6937,292.0312 741.9781,291.7797 Q742.1641,291.6375 742.2625,291.5937 Q742.3609,291.55 742.4812,291.55 Q742.7109,291.55 742.875,291.7359 Q743.05,291.9109 743.05,292.1625 Q743.05,292.4031 742.8094,292.6875 Q742.4594,293.1031 741.9016,293.3328 Q741.1687,293.65 740.2719,293.65 Q739.2219,293.65 738.3797,293.2344 Q737.7016,292.9062 737.2203,292.1953 Q736.75,291.4844 736.75,290.6422 L736.75,289.8766 Q736.75,289.0016 737.1656,288.2359 Q737.5922,287.4703 738.325,287.0656 Q739.0687,286.65 739.9,286.65 Q740.4031,286.65 740.8406,286.825 Q741.2781,287 741.65,287.35 Z " fill="#000000"/><text fill="#000000" font-family="sans-serif" font-size="8.4" lengthAdjust="spacing" textLength="55.3" x="750.05" y="293.2371">StartController</text><line style="stroke:#A80036;stroke-width:1.0499999999999998;" x1="730.45" x2="806.75" y1="301" y2="301"/><line style="stroke:#A80036;stroke-width:1.0499999999999998;" x1="730.45" x2="806.75" y1="306.6" y2="306.6"/><!--MD5=[4fcc3d7338e72a744d3bcdf244a69025]
class ProposedWordController--><rect codeLine="18" fill="#FEFECE" filter="url(#finmmws1ts6a0)" height="33.6" id="ProposedWordController" style="stroke:#A80036;stroke-width:1.0499999999999998;" width="118.3" x="831.95" y="278.6"/><ellipse cx="842.45" cy="289.8" fill="#ADD1B2" rx="7.7" ry="7.7" style="stroke:#A80036;stroke-width:0.6999999999999998;"/><path d="M843.85,287.35 Q843.9922,287 844.1562,286.825 Q844.3203,286.65 844.5062,286.65 Q844.8344,286.65 845.0422,286.8469 Q845.25,287.0437 845.25,287.5031 L845.25,288.5969 Q845.25,289.0562 845.0531,289.2531 Q844.8562,289.45 844.55,289.45 Q844.2766,289.45 844.1016,289.3297 Q843.9266,289.2094 843.85,288.8922 Q843.8172,288.6734 843.6969,288.5531 Q843.4781,288.3234 843.0844,288.1922 Q842.6906,288.05 842.2969,288.05 Q841.8047,288.05 841.3891,288.2469 Q840.9844,288.4437 840.6672,288.8812 Q840.35,289.3187 840.35,289.9203 L840.35,290.5656 Q840.35,291.2875 840.9406,291.7687 Q841.5312,292.25 842.5812,292.25 Q843.2047,292.25 843.6422,292.1078 Q843.8937,292.0312 844.1781,291.7797 Q844.3641,291.6375 844.4625,291.5937 Q844.5609,291.55 844.6812,291.55 Q844.9109,291.55 845.075,291.7359 Q845.25,291.9109 845.25,292.1625 Q845.25,292.4031 845.0094,292.6875 Q844.6594,293.1031 844.1016,293.3328 Q843.3687,293.65 842.4719,293.65 Q841.4219,293.65 840.5797,293.2344 Q839.9016,292.9062 839.4203,292.1953 Q838.95,291.4844 838.95,290.6422 L838.95,289.8766 Q838.95,289.0016 839.3656,288.2359 Q839.7922,287.4703 840.525,287.0656 Q841.2687,286.65 842.1,286.65 Q842.6031,286.65 843.0406,286.825 Q843.4781,287 843.85,287.35 Z " fill="#000000"/><text fill="#000000" font-family="sans-serif" font-size="8.4" lengthAdjust="spacing" textLength="95.9" x="852.25" y="293.2371">ProposedWordController</text><line style="stroke:#A80036;stroke-width:1.0499999999999998;" x1="832.65" x2="949.55" y1="301" y2="301"/><line style="stroke:#A80036;stroke-width:1.0499999999999998;" x1="832.65" x2="949.55" y1="306.6" y2="306.6"/><!--MD5=[511686e480a8766f0b494fb5fe2e6f11]
class ProposedCharController--><rect codeLine="19" fill="#FEFECE" filter="url(#finmmws1ts6a0)" height="33.6" id="ProposedCharController" style="stroke:#A80036;stroke-width:1.0499999999999998;" width="116.9" x="974.75" y="278.6"/><ellipse cx="985.25" cy="289.8" fill="#ADD1B2" rx="7.7" ry="7.7" style="stroke:#A80036;stroke-width:0.6999999999999998;"/><path d="M986.65,287.35 Q986.7922,287 986.9562,286.825 Q987.1203,286.65 987.3062,286.65 Q987.6344,286.65 987.8422,286.8469 Q988.05,287.0437 988.05,287.5031 L988.05,288.5969 Q988.05,289.0562 987.8531,289.2531 Q987.6562,289.45 987.35,289.45 Q987.0766,289.45 986.9016,289.3297 Q986.7266,289.2094 986.65,288.8922 Q986.6172,288.6734 986.4969,288.5531 Q986.2781,288.3234 985.8844,288.1922 Q985.4906,288.05 985.0969,288.05 Q984.6047,288.05 984.1891,288.2469 Q983.7844,288.4437 983.4672,288.8812 Q983.15,289.3187 983.15,289.9203 L983.15,290.5656 Q983.15,291.2875 983.7406,291.7687 Q984.3312,292.25 985.3812,292.25 Q986.0047,292.25 986.4422,292.1078 Q986.6937,292.0312 986.9781,291.7797 Q987.1641,291.6375 987.2625,291.5937 Q987.3609,291.55 987.4812,291.55 Q987.7109,291.55 987.875,291.7359 Q988.05,291.9109 988.05,292.1625 Q988.05,292.4031 987.8094,292.6875 Q987.4594,293.1031 986.9016,293.3328 Q986.1687,293.65 985.2719,293.65 Q984.2219,293.65 983.3797,293.2344 Q982.7016,292.9062 982.2203,292.1953 Q981.75,291.4844 981.75,290.6422 L981.75,289.8766 Q981.75,289.0016 982.1656,288.2359 Q982.5922,287.4703 983.325,287.0656 Q984.0687,286.65 984.9,286.65 Q985.4031,286.65 985.8406,286.825 Q986.2781,287 986.65,287.35 Z " fill="#000000"/><text fill="#000000" font-family="sans-serif" font-size="8.4" lengthAdjust="spacing" textLength="94.5" x="995.05" y="293.2371">ProposedCharController</text><line style="stroke:#A80036;stroke-width:1.0499999999999998;" x1="975.45" x2="1090.95" y1="301" y2="301"/><line style="stroke:#A80036;stroke-width:1.0499999999999998;" x1="975.45" x2="1090.95" y1="306.6" y2="306.6"/><!--MD5=[f25ee20dba692cd6c0e95111d247e8f6]
class EndController--><rect codeLine="20" fill="#FEFECE" filter="url(#finmmws1ts6a0)" height="33.6" id="EndController" style="stroke:#A80036;stroke-width:1.0499999999999998;" width="75.6" x="1116.5" y="278.6"/><ellipse cx="1127" cy="289.8" fill="#ADD1B2" rx="7.7" ry="7.7" style="stroke:#A80036;stroke-width:0.6999999999999998;"/><path d="M1128.4,287.35 Q1128.5422,287 1128.7062,286.825 Q1128.8703,286.65 1129.0562,286.65 Q1129.3844,286.65 1129.5922,286.8469 Q1129.8,287.0437 1129.8,287.5031 L1129.8,288.5969 Q1129.8,289.0562 1129.6031,289.2531 Q1129.4062,289.45 1129.1,289.45 Q1128.8266,289.45 1128.6516,289.3297 Q1128.4766,289.2094 1128.4,288.8922 Q1128.3672,288.6734 1128.2469,288.5531 Q1128.0281,288.3234 1127.6344,288.1922 Q1127.2406,288.05 1126.8469,288.05 Q1126.3547,288.05 1125.9391,288.2469 Q1125.5344,288.4437 1125.2172,288.8812 Q1124.9,289.3187 1124.9,289.9203 L1124.9,290.5656 Q1124.9,291.2875 1125.4906,291.7687 Q1126.0812,292.25 1127.1312,292.25 Q1127.7547,292.25 1128.1922,292.1078 Q1128.4437,292.0312 1128.7281,291.7797 Q1128.9141,291.6375 1129.0125,291.5937 Q1129.1109,291.55 1129.2312,291.55 Q1129.4609,291.55 1129.625,291.7359 Q1129.8,291.9109 1129.8,292.1625 Q1129.8,292.4031 1129.5594,292.6875 Q1129.2094,293.1031 1128.6516,293.3328 Q1127.9187,293.65 1127.0219,293.65 Q1125.9719,293.65 1125.1297,293.2344 Q1124.4516,292.9062 1123.9703,292.1953 Q1123.5,291.4844 1123.5,290.6422 L1123.5,289.8766 Q1123.5,289.0016 1123.9156,288.2359 Q1124.3422,287.4703 1125.075,287.0656 Q1125.8187,286.65 1126.65,286.65 Q1127.1531,286.65 1127.5906,286.825 Q1128.0281,287 1128.4,287.35 Z " fill="#000000"/><text fill="#000000" font-family="sans-serif" font-size="8.4" lengthAdjust="spacing" textLength="53.2" x="1136.8" y="293.2371">EndController</text><line style="stroke:#A80036;stroke-width:1.0499999999999998;" x1="1117.2" x2="1191.4" y1="301" y2="301"/><line style="stroke:#A80036;stroke-width:1.0499999999999998;" x1="1117.2" x2="1191.4" y1="306.6" y2="306.6"/><!--MD5=[07513b2cfa2016c46090541be20532fe]
class Word--><rect codeLine="27" fill="#FEFECE" filter="url(#finmmws1ts6a0)" height="33.6" id="Word" style="stroke:#A80036;stroke-width:1.0499999999999998;" width="42.7" x="145.25" y="29.4"/><ellipse cx="155.75" cy="40.6" fill="#A9DCDF" rx="7.7" ry="7.7" style="stroke:#A80036;stroke-width:0.6999999999999998;"/><path d="M156.975,41.65 L154.6672,41.65 L154.3609,42.35 L154.3609,42.35 L154.6891,42.35 L155.05,42.7875 L155.05,43.05 L155.05,43.3125 L154.6891,43.75 L154.3609,43.75 L153.0375,43.75 L152.6109,43.75 L152.25,43.3125 L152.25,43.05 L152.25,42.7875 L152.6109,42.35 L153.0375,42.35 L154.6562,38.15 L154.0437,38.15 L153.3109,38.15 L152.95,37.7125 L152.95,37.45 L152.95,37.1875 L153.3109,36.75 L154.0437,36.75 L156.6141,36.75 L158.4953,42.35 L158.8891,42.35 L158.8891,42.35 L159.25,42.7875 L159.25,43.05 L159.25,43.3125 L158.8891,43.75 L158.4953,43.75 L157.1719,43.75 L156.8109,43.75 L156.45,43.3125 L156.45,43.05 L156.45,42.7875 L156.8109,42.35 L157.1719,42.35 L157.1719,42.35 L156.975,41.65 Z M156.5922,40.25 L155.75,37.7453 L155.0281,40.25 L156.5922,40.25 Z " fill="#000000"/><text fill="#000000" font-family="sans-serif" font-size="8.4" font-style="italic" lengthAdjust="spacing" textLength="20.3" x="165.55" y="44.0371">Word</text><line style="stroke:#A80036;stroke-width:1.0499999999999998;" x1="145.95" x2="187.25" y1="51.8" y2="51.8"/><line style="stroke:#A80036;stroke-width:1.0499999999999998;" x1="145.95" x2="187.25" y1="57.4" y2="57.4"/><!--MD5=[acd04681fe4e78431fb408d1ad443a63]
class ProposedChar--><rect codeLine="28" fill="#FEFECE" filter="url(#finmmws1ts6a0)" height="33.6" id="ProposedChar" style="stroke:#A80036;stroke-width:1.0499999999999998;" width="79.1" x="22.75" y="116.2"/><ellipse cx="33.25" cy="127.4" fill="#ADD1B2" rx="7.7" ry="7.7" style="stroke:#A80036;stroke-width:0.6999999999999998;"/><path d="M34.65,124.95 Q34.7922,124.6 34.9562,124.425 Q35.1203,124.25 35.3062,124.25 Q35.6344,124.25 35.8422,124.4469 Q36.05,124.6437 36.05,125.1031 L36.05,126.1969 Q36.05,126.6562 35.8531,126.8531 Q35.6562,127.05 35.35,127.05 Q35.0766,127.05 34.9016,126.9297 Q34.7266,126.8094 34.65,126.4922 Q34.6172,126.2734 34.4969,126.1531 Q34.2781,125.9234 33.8844,125.7922 Q33.4906,125.65 33.0969,125.65 Q32.6047,125.65 32.1891,125.8469 Q31.7844,126.0437 31.4672,126.4812 Q31.15,126.9187 31.15,127.5203 L31.15,128.1656 Q31.15,128.8875 31.7406,129.3687 Q32.3312,129.85 33.3812,129.85 Q34.0047,129.85 34.4422,129.7078 Q34.6937,129.6312 34.9781,129.3797 Q35.1641,129.2375 35.2625,129.1937 Q35.3609,129.15 35.4812,129.15 Q35.7109,129.15 35.875,129.3359 Q36.05,129.5109 36.05,129.7625 Q36.05,130.0031 35.8094,130.2875 Q35.4594,130.7031 34.9016,130.9328 Q34.1687,131.25 33.2719,131.25 Q32.2219,131.25 31.3797,130.8344 Q30.7016,130.5062 30.2203,129.7953 Q29.75,129.0844 29.75,128.2422 L29.75,127.4766 Q29.75,126.6016 30.1656,125.8359 Q30.5922,125.0703 31.325,124.6656 Q32.0687,124.25 32.9,124.25 Q33.4031,124.25 33.8406,124.425 Q34.2781,124.6 34.65,124.95 Z " fill="#000000"/><text fill="#000000" font-family="sans-serif" font-size="8.4" lengthAdjust="spacing" textLength="56.7" x="43.05" y="130.8371">ProposedChar</text><line style="stroke:#A80036;stroke-width:1.0499999999999998;" x1="23.45" x2="101.15" y1="138.6" y2="138.6"/><line style="stroke:#A80036;stroke-width:1.0499999999999998;" x1="23.45" x2="101.15" y1="144.2" y2="144.2"/><!--MD5=[7548fcd528851361d063f8551be16fc3]
class ProposedWord--><rect codeLine="29" fill="#FEFECE" filter="url(#finmmws1ts6a0)" height="33.6" id="ProposedWord" style="stroke:#A80036;stroke-width:1.0499999999999998;" width="80.5" x="126.35" y="116.2"/><ellipse cx="136.85" cy="127.4" fill="#ADD1B2" rx="7.7" ry="7.7" style="stroke:#A80036;stroke-width:0.6999999999999998;"/><path d="M138.25,124.95 Q138.3922,124.6 138.5562,124.425 Q138.7203,124.25 138.9062,124.25 Q139.2344,124.25 139.4422,124.4469 Q139.65,124.6437 139.65,125.1031 L139.65,126.1969 Q139.65,126.6562 139.4531,126.8531 Q139.2562,127.05 138.95,127.05 Q138.6766,127.05 138.5016,126.9297 Q138.3266,126.8094 138.25,126.4922 Q138.2172,126.2734 138.0969,126.1531 Q137.8781,125.9234 137.4844,125.7922 Q137.0906,125.65 136.6969,125.65 Q136.2047,125.65 135.7891,125.8469 Q135.3844,126.0437 135.0672,126.4812 Q134.75,126.9187 134.75,127.5203 L134.75,128.1656 Q134.75,128.8875 135.3406,129.3687 Q135.9312,129.85 136.9812,129.85 Q137.6047,129.85 138.0422,129.7078 Q138.2937,129.6312 138.5781,129.3797 Q138.7641,129.2375 138.8625,129.1937 Q138.9609,129.15 139.0812,129.15 Q139.3109,129.15 139.475,129.3359 Q139.65,129.5109 139.65,129.7625 Q139.65,130.0031 139.4094,130.2875 Q139.0594,130.7031 138.5016,130.9328 Q137.7687,131.25 136.8719,131.25 Q135.8219,131.25 134.9797,130.8344 Q134.3016,130.5062 133.8203,129.7953 Q133.35,129.0844 133.35,128.2422 L133.35,127.4766 Q133.35,126.6016 133.7656,125.8359 Q134.1922,125.0703 134.925,124.6656 Q135.6687,124.25 136.5,124.25 Q137.0031,124.25 137.4406,124.425 Q137.8781,124.6 138.25,124.95 Z " fill="#000000"/><text fill="#000000" font-family="sans-serif" font-size="8.4" lengthAdjust="spacing" textLength="58.1" x="146.65" y="130.8371">ProposedWord</text><line style="stroke:#A80036;stroke-width:1.0499999999999998;" x1="127.05" x2="206.15" y1="138.6" y2="138.6"/><line style="stroke:#A80036;stroke-width:1.0499999999999998;" x1="127.05" x2="206.15" y1="144.2" y2="144.2"/><!--MD5=[1e8c54f5ac0ec684c0f71587f512d7a6]
class SecretWord--><rect codeLine="30" fill="#FEFECE" filter="url(#finmmws1ts6a0)" height="33.6" id="SecretWord" style="stroke:#A80036;stroke-width:1.0499999999999998;" width="67.2" x="231.7" y="116.2"/><ellipse cx="242.2" cy="127.4" fill="#ADD1B2" rx="7.7" ry="7.7" style="stroke:#A80036;stroke-width:0.6999999999999998;"/><path d="M243.6,124.95 Q243.7422,124.6 243.9062,124.425 Q244.0703,124.25 244.2562,124.25 Q244.5844,124.25 244.7922,124.4469 Q245,124.6437 245,125.1031 L245,126.1969 Q245,126.6562 244.8031,126.8531 Q244.6062,127.05 244.3,127.05 Q244.0266,127.05 243.8516,126.9297 Q243.6766,126.8094 243.6,126.4922 Q243.5672,126.2734 243.4469,126.1531 Q243.2281,125.9234 242.8344,125.7922 Q242.4406,125.65 242.0469,125.65 Q241.5547,125.65 241.1391,125.8469 Q240.7344,126.0437 240.4172,126.4812 Q240.1,126.9187 240.1,127.5203 L240.1,128.1656 Q240.1,128.8875 240.6906,129.3687 Q241.2812,129.85 242.3312,129.85 Q242.9547,129.85 243.3922,129.7078 Q243.6437,129.6312 243.9281,129.3797 Q244.1141,129.2375 244.2125,129.1937 Q244.3109,129.15 244.4312,129.15 Q244.6609,129.15 244.825,129.3359 Q245,129.5109 245,129.7625 Q245,130.0031 244.7594,130.2875 Q244.4094,130.7031 243.8516,130.9328 Q243.1187,131.25 242.2219,131.25 Q241.1719,131.25 240.3297,130.8344 Q239.6516,130.5062 239.1703,129.7953 Q238.7,129.0844 238.7,128.2422 L238.7,127.4766 Q238.7,126.6016 239.1156,125.8359 Q239.5422,125.0703 240.275,124.6656 Q241.0187,124.25 241.85,124.25 Q242.3531,124.25 242.7906,124.425 Q243.2281,124.6 243.6,124.95 Z " fill="#000000"/><text fill="#000000" font-family="sans-serif" font-size="8.4" lengthAdjust="spacing" textLength="44.8" x="252" y="130.8371">SecretWord</text><line style="stroke:#A80036;stroke-width:1.0499999999999998;" x1="232.4" x2="298.2" y1="138.6" y2="138.6"/><line style="stroke:#A80036;stroke-width:1.0499999999999998;" x1="232.4" x2="298.2" y1="144.2" y2="144.2"/><!--MD5=[7dc9f4e9588c839c0e53a881b84874c2]
class HangedPart--><rect codeLine="31" fill="#FEFECE" filter="url(#finmmws1ts6a0)" height="33.6" id="HangedPart" style="stroke:#A80036;stroke-width:1.0499999999999998;" width="68.6" x="312.2" y="29.4"/><ellipse cx="322.7" cy="40.6" fill="#ADD1B2" rx="7.7" ry="7.7" style="stroke:#A80036;stroke-width:0.6999999999999998;"/><path d="M324.1,38.15 Q324.2422,37.8 324.4062,37.625 Q324.5703,37.45 324.7562,37.45 Q325.0844,37.45 325.2922,37.6469 Q325.5,37.8437 325.5,38.3031 L325.5,39.3969 Q325.5,39.8562 325.3031,40.0531 Q325.1062,40.25 324.8,40.25 Q324.5266,40.25 324.3516,40.1297 Q324.1766,40.0094 324.1,39.6922 Q324.0672,39.4734 323.9469,39.3531 Q323.7281,39.1234 323.3344,38.9922 Q322.9406,38.85 322.5469,38.85 Q322.0547,38.85 321.6391,39.0469 Q321.2344,39.2437 320.9172,39.6812 Q320.6,40.1187 320.6,40.7203 L320.6,41.3656 Q320.6,42.0875 321.1906,42.5687 Q321.7812,43.05 322.8312,43.05 Q323.4547,43.05 323.8922,42.9078 Q324.1437,42.8312 324.4281,42.5797 Q324.6141,42.4375 324.7125,42.3937 Q324.8109,42.35 324.9312,42.35 Q325.1609,42.35 325.325,42.5359 Q325.5,42.7109 325.5,42.9625 Q325.5,43.2031 325.2594,43.4875 Q324.9094,43.9031 324.3516,44.1328 Q323.6187,44.45 322.7219,44.45 Q321.6719,44.45 320.8297,44.0344 Q320.1516,43.7062 319.6703,42.9953 Q319.2,42.2844 319.2,41.4422 L319.2,40.6766 Q319.2,39.8016 319.6156,39.0359 Q320.0422,38.2703 320.775,37.8656 Q321.5187,37.45 322.35,37.45 Q322.8531,37.45 323.2906,37.625 Q323.7281,37.8 324.1,38.15 Z " fill="#000000"/><text fill="#000000" font-family="sans-serif" font-size="8.4" lengthAdjust="spacing" textLength="46.2" x="332.5" y="44.0371">HangedPart</text><line style="stroke:#A80036;stroke-width:1.0499999999999998;" x1="312.9" x2="380.1" y1="51.8" y2="51.8"/><line style="stroke:#A80036;stroke-width:1.0499999999999998;" x1="312.9" x2="380.1" y1="57.4" y2="57.4"/><!--MD5=[dd91eae41778c45e12552e5329e240e8]
class Turn--><rect codeLine="32" fill="#FEFECE" filter="url(#finmmws1ts6a0)" height="33.6" id="Turn" style="stroke:#A80036;stroke-width:1.0499999999999998;" width="39.9" x="405.65" y="29.4"/><ellipse cx="416.15" cy="40.6" fill="#ADD1B2" rx="7.7" ry="7.7" style="stroke:#A80036;stroke-width:0.6999999999999998;"/><path d="M417.55,38.15 Q417.6922,37.8 417.8562,37.625 Q418.0203,37.45 418.2062,37.45 Q418.5344,37.45 418.7422,37.6469 Q418.95,37.8437 418.95,38.3031 L418.95,39.3969 Q418.95,39.8562 418.7531,40.0531 Q418.5562,40.25 418.25,40.25 Q417.9766,40.25 417.8016,40.1297 Q417.6266,40.0094 417.55,39.6922 Q417.5172,39.4734 417.3969,39.3531 Q417.1781,39.1234 416.7844,38.9922 Q416.3906,38.85 415.9969,38.85 Q415.5047,38.85 415.0891,39.0469 Q414.6844,39.2437 414.3672,39.6812 Q414.05,40.1187 414.05,40.7203 L414.05,41.3656 Q414.05,42.0875 414.6406,42.5687 Q415.2312,43.05 416.2812,43.05 Q416.9047,43.05 417.3422,42.9078 Q417.5937,42.8312 417.8781,42.5797 Q418.0641,42.4375 418.1625,42.3937 Q418.2609,42.35 418.3812,42.35 Q418.6109,42.35 418.775,42.5359 Q418.95,42.7109 418.95,42.9625 Q418.95,43.2031 418.7094,43.4875 Q418.3594,43.9031 417.8016,44.1328 Q417.0687,44.45 416.1719,44.45 Q415.1219,44.45 414.2797,44.0344 Q413.6016,43.7062 413.1203,42.9953 Q412.65,42.2844 412.65,41.4422 L412.65,40.6766 Q412.65,39.8016 413.0656,39.0359 Q413.4922,38.2703 414.225,37.8656 Q414.9687,37.45 415.8,37.45 Q416.3031,37.45 416.7406,37.625 Q417.1781,37.8 417.55,38.15 Z " fill="#000000"/><text fill="#000000" font-family="sans-serif" font-size="8.4" lengthAdjust="spacing" textLength="17.5" x="425.95" y="44.0371">Turn</text><line style="stroke:#A80036;stroke-width:1.0499999999999998;" x1="406.35" x2="444.85" y1="51.8" y2="51.8"/><line style="stroke:#A80036;stroke-width:1.0499999999999998;" x1="406.35" x2="444.85" y1="57.4" y2="57.4"/><!--MD5=[2cb47ba637a0d19583e6199456f6ad0b]
class Player--><rect codeLine="33" fill="#FEFECE" filter="url(#finmmws1ts6a0)" height="33.6" id="Player" style="stroke:#A80036;stroke-width:1.0499999999999998;" width="46.2" x="323.4" y="116.2"/><ellipse cx="333.9" cy="127.4" fill="#ADD1B2" rx="7.7" ry="7.7" style="stroke:#A80036;stroke-width:0.6999999999999998;"/><path d="M335.3,124.95 Q335.4422,124.6 335.6062,124.425 Q335.7703,124.25 335.9562,124.25 Q336.2844,124.25 336.4922,124.4469 Q336.7,124.6437 336.7,125.1031 L336.7,126.1969 Q336.7,126.6562 336.5031,126.8531 Q336.3062,127.05 336,127.05 Q335.7266,127.05 335.5516,126.9297 Q335.3766,126.8094 335.3,126.4922 Q335.2672,126.2734 335.1469,126.1531 Q334.9281,125.9234 334.5344,125.7922 Q334.1406,125.65 333.7469,125.65 Q333.2547,125.65 332.8391,125.8469 Q332.4344,126.0437 332.1172,126.4812 Q331.8,126.9187 331.8,127.5203 L331.8,128.1656 Q331.8,128.8875 332.3906,129.3687 Q332.9812,129.85 334.0312,129.85 Q334.6547,129.85 335.0922,129.7078 Q335.3437,129.6312 335.6281,129.3797 Q335.8141,129.2375 335.9125,129.1937 Q336.0109,129.15 336.1312,129.15 Q336.3609,129.15 336.525,129.3359 Q336.7,129.5109 336.7,129.7625 Q336.7,130.0031 336.4594,130.2875 Q336.1094,130.7031 335.5516,130.9328 Q334.8187,131.25 333.9219,131.25 Q332.8719,131.25 332.0297,130.8344 Q331.3516,130.5062 330.8703,129.7953 Q330.4,129.0844 330.4,128.2422 L330.4,127.4766 Q330.4,126.6016 330.8156,125.8359 Q331.2422,125.0703 331.975,124.6656 Q332.7187,124.25 333.55,124.25 Q334.0531,124.25 334.4906,124.425 Q334.9281,124.6 335.3,124.95 Z " fill="#000000"/><text fill="#000000" font-family="sans-serif" font-size="8.4" lengthAdjust="spacing" textLength="23.8" x="343.7" y="130.8371">Player</text><line style="stroke:#A80036;stroke-width:1.0499999999999998;" x1="324.1" x2="368.9" y1="138.6" y2="138.6"/><line style="stroke:#A80036;stroke-width:1.0499999999999998;" x1="324.1" x2="368.9" y1="144.2" y2="144.2"/><!--MD5=[099e1a61fb1247a2fb1eecef03d4d7bd]
class BoardPaper--><rect codeLine="34" fill="#FEFECE" filter="url(#finmmws1ts6a0)" height="33.6" id="BoardPaper" style="stroke:#A80036;stroke-width:1.0499999999999998;" width="68.6" x="394.1" y="116.2"/><ellipse cx="404.6" cy="127.4" fill="#ADD1B2" rx="7.7" ry="7.7" style="stroke:#A80036;stroke-width:0.6999999999999998;"/><path d="M406,124.95 Q406.1422,124.6 406.3062,124.425 Q406.4703,124.25 406.6562,124.25 Q406.9844,124.25 407.1922,124.4469 Q407.4,124.6437 407.4,125.1031 L407.4,126.1969 Q407.4,126.6562 407.2031,126.8531 Q407.0062,127.05 406.7,127.05 Q406.4266,127.05 406.2516,126.9297 Q406.0766,126.8094 406,126.4922 Q405.9672,126.2734 405.8469,126.1531 Q405.6281,125.9234 405.2344,125.7922 Q404.8406,125.65 404.4469,125.65 Q403.9547,125.65 403.5391,125.8469 Q403.1344,126.0437 402.8172,126.4812 Q402.5,126.9187 402.5,127.5203 L402.5,128.1656 Q402.5,128.8875 403.0906,129.3687 Q403.6812,129.85 404.7312,129.85 Q405.3547,129.85 405.7922,129.7078 Q406.0437,129.6312 406.3281,129.3797 Q406.5141,129.2375 406.6125,129.1937 Q406.7109,129.15 406.8312,129.15 Q407.0609,129.15 407.225,129.3359 Q407.4,129.5109 407.4,129.7625 Q407.4,130.0031 407.1594,130.2875 Q406.8094,130.7031 406.2516,130.9328 Q405.5187,131.25 404.6219,131.25 Q403.5719,131.25 402.7297,130.8344 Q402.0516,130.5062 401.5703,129.7953 Q401.1,129.0844 401.1,128.2422 L401.1,127.4766 Q401.1,126.6016 401.5156,125.8359 Q401.9422,125.0703 402.675,124.6656 Q403.4187,124.25 404.25,124.25 Q404.7531,124.25 405.1906,124.425 Q405.6281,124.6 406,124.95 Z " fill="#000000"/><text fill="#000000" font-family="sans-serif" font-size="8.4" lengthAdjust="spacing" textLength="46.2" x="414.4" y="130.8371">BoardPaper</text><line style="stroke:#A80036;stroke-width:1.0499999999999998;" x1="394.8" x2="462" y1="138.6" y2="138.6"/><line style="stroke:#A80036;stroke-width:1.0499999999999998;" x1="394.8" x2="462" y1="144.2" y2="144.2"/><!--MD5=[98c712d6c16a4ce2e31b2930753001e2]
link Hanged to View--><path codeLine="36" d="M701.7837,69.3447 C701.7837,69.3447 676.326,97.09 665.133,109.277 " fill="none" id="Hanged-View" style="stroke:#A80036;stroke-width:0.6999999999999998;"/><polygon fill="#A80036" points="658.875,116.095,665.198,113.3472,661.2418,113.5166,661.0724,109.5604,658.875,116.095" style="stroke:#A80036;stroke-width:0.6999999999999998;"/><line style="stroke:#A80036;stroke-width:0.6999999999999998;" x1="661.2418" x2="665.028" y1="113.5166" y2="109.3925"/><polygon fill="#A80036" points="707.469,63.161,702.5651,64.3577,701.7837,69.3447,706.6876,68.1479,707.469,63.161" style="stroke:#A80036;stroke-width:0.6999999999999998;"/><!--MD5=[34ad7eb222c81a08ccc175dd3309ae0c]
link Hanged to Logic--><path codeLine="37" d="M738.8735,70.002 C738.8735,70.002 757.876,96.642 766.255,108.395 " fill="none" id="Hanged-Logic" style="stroke:#A80036;stroke-width:0.6999999999999998;"/><polygon fill="#A80036" points="771.743,116.095,770.3674,109.3394,769.7119,113.2446,765.8068,112.5891,771.743,116.095" style="stroke:#A80036;stroke-width:0.6999999999999998;"/><line style="stroke:#A80036;stroke-width:0.6999999999999998;" x1="769.7119" x2="766.4615" y1="113.2446" y2="108.689"/><polygon fill="#A80036" points="733.999,63.161,734.1559,68.2063,738.8735,70.002,738.7166,64.9566,733.999,63.161" style="stroke:#A80036;stroke-width:0.6999999999999998;"/><!--MD5=[659ed500b9b8ead0181f4562a7521276]
link Logic to Controller--><path codeLine="38" d="M810.4146,155.178 C810.4146,155.178 847.336,184.429 863.366,197.134 " fill="none" id="Logic-Controller" style="stroke:#A80036;stroke-width:0.6999999999999998;"/><polygon fill="#A80036" points="870.646,202.895,867.4432,196.7899,867.9014,200.7231,863.9682,201.1813,870.646,202.895" style="stroke:#A80036;stroke-width:0.6999999999999998;"/><line style="stroke:#A80036;stroke-width:0.6999999999999998;" x1="867.9014" x2="863.5165" y1="200.7231" y2="197.246"/><polygon fill="#FFFFFF" points="803.831,149.961,805.3838,154.764,810.4146,155.178,808.8618,150.375,803.831,149.961" style="stroke:#A80036;stroke-width:0.6999999999999998;"/><!--MD5=[d97c95d7197a20d753a2598eef0a9990]
reverse link View to StartView--><path codeLine="39" d="M644,163.989 C644,177.107 644,191.926 644,202.895 " fill="none" id="View-backto-StartView" style="stroke:#A80036;stroke-width:0.6999999999999998;"/><polygon fill="none" points="639.1,163.961,644,149.961,648.9,163.961,639.1,163.961" style="stroke:#A80036;stroke-width:0.6999999999999998;"/><!--MD5=[c2498cadc8432f567dbe81f01cb7b226]
reverse link View to InGameView--><path codeLine="40" d="M616.035,159.621 C611.562,163.814 606.991,168.112 602.7,172.2 C592.032,182.35 580.16,193.872 570.864,202.951 " fill="none" id="View-backto-InGameView" style="stroke:#A80036;stroke-width:0.6999999999999998;"/><polygon fill="none" points="612.864,155.883,626.444,149.919,619.549,163.051,612.864,155.883" style="stroke:#A80036;stroke-width:0.6999999999999998;"/><!--MD5=[354d6deacb49030493b7fd8cb23ebdce]
reverse link Controller to StartController--><path codeLine="42" d="M864.199,246.141 C854.448,254.555 843.01,263.459 831.6,270.2 C824.124,274.617 815.703,278.523 807.513,281.855 " fill="none" id="Controller-backto-StartController" style="stroke:#A80036;stroke-width:0.6999999999999998;"/><polygon fill="none" points="861.084,242.361,874.776,236.656,867.629,249.655,861.084,242.361" style="stroke:#A80036;stroke-width:0.6999999999999998;"/><!--MD5=[f4337827677e4d3e764b574c89ecaffa]
reverse link Controller to ProposedWordController--><path codeLine="43" d="M891.1,250.614 C891.1,260.106 891.1,270.228 891.1,278.376 " fill="none" id="Controller-backto-ProposedWordController" style="stroke:#A80036;stroke-width:0.6999999999999998;"/><polygon fill="none" points="886.2,250.6,891.1,236.6,896,250.6,886.2,250.6" style="stroke:#A80036;stroke-width:0.6999999999999998;"/><!--MD5=[4b5fd7361db02086857604741f8a4753]
reverse link Controller to ProposedCharController--><path codeLine="44" d="M933.919,242.858 C955.878,254.324 982.135,268.037 1002.127,278.474 " fill="none" id="Controller-backto-ProposedCharController" style="stroke:#A80036;stroke-width:0.6999999999999998;"/><polygon fill="none" points="931.378,247.058,921.235,236.236,935.914,238.371,931.378,247.058" style="stroke:#A80036;stroke-width:0.6999999999999998;"/><!--MD5=[2fb970939bfdd83753cb735b37d8ddc8]
reverse link Controller to EndController--><path codeLine="45" d="M934.983,231.896 C978.124,243.236 1045.751,261.38 1103.9,278.6 C1107.953,279.797 1112.174,281.085 1116.374,282.394 " fill="none" id="Controller-backto-EndController" style="stroke:#A80036;stroke-width:0.6999999999999998;"/><polygon fill="none" points="933.646,236.614,921.347,228.326,936.131,227.129,933.646,236.614" style="stroke:#A80036;stroke-width:0.6999999999999998;"/><!--MD5=[1df94896617dd62ae80c80e9749abfc4]
link Logic to SesionValue--><path codeLine="47" d="M783.3,158.361 C783.3,158.361 783.3,182.665 783.3,193.522 " fill="none" id="Logic-SesionValue" style="stroke:#A80036;stroke-width:0.6999999999999998;"/><polygon fill="#A80036" points="783.3,202.895,786.1,196.595,783.3,199.395,780.5,196.595,783.3,202.895" style="stroke:#A80036;stroke-width:0.6999999999999998;"/><line style="stroke:#A80036;stroke-width:0.6999999999999998;" x1="783.3" x2="783.3" y1="199.395" y2="193.795"/><polygon fill="#FFFFFF" points="783.3,149.961,780.5,154.161,783.3,158.361,786.1,154.161,783.3,149.961" style="stroke:#A80036;stroke-width:0.6999999999999998;"/><!--MD5=[3885fcd414882a10c933b601f37f5444]
reverse link Word to ProposedChar--><path codeLine="48" d="M133.616,70.287 C127.057,75.159 120.288,80.353 114.1,85.4 C102.158,95.137 89.32,106.757 79.408,115.997 " fill="none" id="Word-backto-ProposedChar" style="stroke:#A80036;stroke-width:0.6999999999999998;"/><polygon fill="none" points="130.823,66.255,145.019,61.964,136.605,74.172,130.823,66.255" style="stroke:#A80036;stroke-width:0.6999999999999998;"/><!--MD5=[fb4716de87831dad7a0e2e9212b3c14a]
reverse link Word to ProposedWord--><path codeLine="49" d="M166.6,77.189 C166.6,90.307 166.6,105.126 166.6,116.095 " fill="none" id="Word-backto-ProposedWord" style="stroke:#A80036;stroke-width:0.6999999999999998;"/><polygon fill="none" points="161.7,77.161,166.6,63.161,171.5,77.161,161.7,77.161" style="stroke:#A80036;stroke-width:0.6999999999999998;"/><!--MD5=[7ff0a52c509d9d569fc0b9dcb70aa6c3]
reverse link Word to SecretWord--><path codeLine="50" d="M199.647,69.881 C206.241,74.816 213.01,80.136 219.1,85.4 C230.167,94.969 241.717,106.694 250.502,116.025 " fill="none" id="Word-backto-SecretWord" style="stroke:#A80036;stroke-width:0.6999999999999998;"/><polygon fill="none" points="196.581,73.717,188.139,61.516,202.349,65.793,196.581,73.717" style="stroke:#A80036;stroke-width:0.6999999999999998;"/><!--MD5=[c6f917114e7131cd10a00160d6dc7d19]
link HangedPart to Turn--><!--MD5=[da4331cb2247fe3a8b6066a13c98030e]
link HangedPart to Player--><!--MD5=[f30a89c35a87c03cf60b1fdd5b07a57e]
link Player to BoardPaper--><!--MD5=[8a82ba33e68edf75ed78a3e8975a8d7f]
@startuml
package "main" {
class Hanged
}

package "views"{
abstract class View
    package "console" {
        class StartView
        class InGameView
    }
}

package "controllers"{
class Logic
enum SesionValue
abstract class Controller
class StartController
class ProposedWordController
class ProposedCharController
class EndController


}


package "models" {
abstract class Word
class ProposedChar
class ProposedWord
class SecretWord
class HangedPart
class Turn
class Player
class BoardPaper
}
Hanged *- -> View
Hanged *- -> Logic
Logic o- -> Controller
View <|- - StartView
View <|- - InGameView

Controller <|- - StartController
Controller <|- - ProposedWordController
Controller <|- - ProposedCharController
Controller <|- - EndController

Logic o- -> SesionValue
Word <|- - ProposedChar
Word <|- - ProposedWord
Word <|- - SecretWord



@enduml

PlantUML version 1.2021.7(Sun May 23 14:40:07 CEST 2021)
(GPL source distribution)
Java Runtime: OpenJDK Runtime Environment
JVM: OpenJDK 64-Bit Server VM
Default Encoding: Cp1252
Language: es
Country: ES
--></g></svg>