<?xml version="1.0" encoding="UTF-8" standalone="no"?><svg xmlns="http://www.w3.org/2000/svg" xmlns:xlink="http://www.w3.org/1999/xlink" contentScriptType="application/ecmascript" contentStyleType="text/css" height="234.5px" preserveAspectRatio="none" style="width:801px;height:234px;background:#FFFFFF;" version="1.1" viewBox="0 0 801 234" width="801.5px" zoomAndPan="magnify"><defs><filter height="300%" id="fp4g2cqzl6jbn" width="300%" x="-1" y="-1"><feGaussianBlur result="blurOut" stdDeviation="1.0"/><feColorMatrix in="blurOut" result="blurOut2" type="matrix" values="0 0 0 0 0 0 0 0 0 0 0 0 0 0 0 0 0 0 .4 0"/><feOffset dx="2.0" dy="2.0" in="blurOut2" result="blurOut3"/><feBlend in="SourceGraphic" in2="blurOut3" mode="normal"/></filter></defs><g><!--MD5=[a70b0d373322012744ecc119c63f921b]
cluster main--><polygon fill="#FFFFFF" filter="url(#fp4g2cqzl6jbn)" points="422.5,3,442,3,445.5,14.8047,476.5,14.8047,476.5,53,422.5,53,422.5,3" style="stroke:#000000;stroke-width:0.75;"/><line style="stroke:#000000;stroke-width:0.75;" x1="422.5" x2="445.5" y1="14.8047" y2="14.8047"/><text fill="#000000" font-family="sans-serif" font-size="7" font-weight="bold" lengthAdjust="spacing" textLength="16.5" x="424.5" y="11.2666">main</text><!--MD5=[e2a75efa8a0f57c2afae8bf75386f79c]
cluster views--><polygon fill="#FFFFFF" filter="url(#fp4g2cqzl6jbn)" points="284,65,307.5,65,311,76.8047,434.5,76.8047,434.5,189,284,189,284,65" style="stroke:#000000;stroke-width:0.75;"/><line style="stroke:#000000;stroke-width:0.75;" x1="284" x2="311" y1="76.8047" y2="76.8047"/><text fill="#000000" font-family="sans-serif" font-size="7" font-weight="bold" lengthAdjust="spacing" textLength="20.5" x="286" y="73.2666">views</text><!--MD5=[4b7a55d430ce43d42ce9ebad9e6b4010]
cluster console--><polygon fill="#FFFFFF" filter="url(#fp4g2cqzl6jbn)" points="296,127,327,127,330.5,138.8047,422.5,138.8047,422.5,177,296,177,296,127" style="stroke:#000000;stroke-width:0.75;"/><line style="stroke:#000000;stroke-width:0.75;" x1="296" x2="330.5" y1="138.8047" y2="138.8047"/><text fill="#000000" font-family="sans-serif" font-size="7" font-weight="bold" lengthAdjust="spacing" textLength="28" x="298" y="135.2666">console</text><!--MD5=[f4e70ef68289585296b9045165e58692]
cluster controllers--><polygon fill="#FFFFFF" filter="url(#fp4g2cqzl6jbn)" points="446.5,65,488,65,491.5,76.8047,793,76.8047,793,231,446.5,231,446.5,65" style="stroke:#000000;stroke-width:0.75;"/><line style="stroke:#000000;stroke-width:0.75;" x1="446.5" x2="491.5" y1="76.8047" y2="76.8047"/><text fill="#000000" font-family="sans-serif" font-size="7" font-weight="bold" lengthAdjust="spacing" textLength="38.5" x="448.5" y="73.2666">controllers</text><!--MD5=[a60570e4b426f702ccbb0d459e3b9417]
cluster models--><polygon fill="#FFFFFF" filter="url(#fp4g2cqzl6jbn)" points="8,3,36.5,3,40,14.8047,272,14.8047,272,115,8,115,8,3" style="stroke:#000000;stroke-width:0.75;"/><line style="stroke:#000000;stroke-width:0.75;" x1="8" x2="40" y1="14.8047" y2="14.8047"/><text fill="#000000" font-family="sans-serif" font-size="7" font-weight="bold" lengthAdjust="spacing" textLength="25.5" x="10" y="11.2666">models</text><!--MD5=[d7ec263f7daf4a6472ede7f2d3e0d6e7]
class Hanged--><rect codeLine="2" fill="#FEFECE" filter="url(#fp4g2cqzl6jbn)" height="24" id="Hanged" style="stroke:#A80036;stroke-width:0.75;" width="38" x="430.5" y="21"/><ellipse cx="438" cy="29" fill="#ADD1B2" rx="5.5" ry="5.5" style="stroke:#A80036;stroke-width:0.5;"/><path d="M439,27.25 Q439.1016,27 439.2188,26.875 Q439.3359,26.75 439.4688,26.75 Q439.7031,26.75 439.8516,26.8906 Q440,27.0313 440,27.3594 L440,28.1406 Q440,28.4688 439.8594,28.6094 Q439.7188,28.75 439.5,28.75 Q439.3047,28.75 439.1797,28.6641 Q439.0547,28.5781 439,28.3516 Q438.9766,28.1953 438.8906,28.1094 Q438.7344,27.9453 438.4531,27.8516 Q438.1719,27.75 437.8906,27.75 Q437.5391,27.75 437.2422,27.8906 Q436.9531,28.0313 436.7266,28.3438 Q436.5,28.6563 436.5,29.0859 L436.5,29.5469 Q436.5,30.0625 436.9219,30.4063 Q437.3438,30.75 438.0938,30.75 Q438.5391,30.75 438.8516,30.6484 Q439.0313,30.5938 439.2344,30.4141 Q439.3672,30.3125 439.4375,30.2813 Q439.5078,30.25 439.5938,30.25 Q439.7578,30.25 439.875,30.3828 Q440,30.5078 440,30.6875 Q440,30.8594 439.8281,31.0625 Q439.5781,31.3594 439.1797,31.5234 Q438.6563,31.75 438.0156,31.75 Q437.2656,31.75 436.6641,31.4531 Q436.1797,31.2188 435.8359,30.7109 Q435.5,30.2031 435.5,29.6016 L435.5,29.0547 Q435.5,28.4297 435.7969,27.8828 Q436.1016,27.3359 436.625,27.0469 Q437.1563,26.75 437.75,26.75 Q438.1094,26.75 438.4219,26.875 Q438.7344,27 439,27.25 Z " fill="#000000"/><text fill="#000000" font-family="sans-serif" font-size="6" lengthAdjust="spacing" textLength="22" x="445" y="31.4551">Hanged</text><line style="stroke:#A80036;stroke-width:0.75;" x1="431" x2="468" y1="37" y2="37"/><line style="stroke:#A80036;stroke-width:0.75;" x1="431" x2="468" y1="41" y2="41"/><!--MD5=[c045e12321b83266d36d22b9096c24ea]
class View--><rect codeLine="6" fill="#FEFECE" filter="url(#fp4g2cqzl6jbn)" height="24" id="View" style="stroke:#A80036;stroke-width:0.75;" width="29" x="379" y="83"/><ellipse cx="386.5" cy="91" fill="#A9DCDF" rx="5.5" ry="5.5" style="stroke:#A80036;stroke-width:0.5;"/><path d="M387.375,91.75 L385.7266,91.75 L385.5078,92.25 L385.5078,92.25 L385.7422,92.25 L386,92.5625 L386,92.75 L386,92.9375 L385.7422,93.25 L385.5078,93.25 L384.5625,93.25 L384.2578,93.25 L384,92.9375 L384,92.75 L384,92.5625 L384.2578,92.25 L384.5625,92.25 L385.7188,89.25 L385.2813,89.25 L384.7578,89.25 L384.5,88.9375 L384.5,88.75 L384.5,88.5625 L384.7578,88.25 L385.2813,88.25 L387.1172,88.25 L388.4609,92.25 L388.7422,92.25 L388.7422,92.25 L389,92.5625 L389,92.75 L389,92.9375 L388.7422,93.25 L388.4609,93.25 L387.5156,93.25 L387.2578,93.25 L387,92.9375 L387,92.75 L387,92.5625 L387.2578,92.25 L387.5156,92.25 L387.5156,92.25 L387.375,91.75 Z M387.1016,90.75 L386.5,88.9609 L385.9844,90.75 L387.1016,90.75 Z " fill="#000000"/><text fill="#000000" font-family="sans-serif" font-size="6" font-style="italic" lengthAdjust="spacing" textLength="13" x="393.5" y="93.4551">View</text><line style="stroke:#A80036;stroke-width:0.75;" x1="379.5" x2="407.5" y1="99" y2="99"/><line style="stroke:#A80036;stroke-width:0.75;" x1="379.5" x2="407.5" y1="103" y2="103"/><!--MD5=[443c52daef265809fdf31be84fc8ae4a]
class StartView--><rect codeLine="8" fill="#FEFECE" filter="url(#fp4g2cqzl6jbn)" height="24" id="StartView" style="stroke:#A80036;stroke-width:0.75;" width="41.5" x="372.75" y="145"/><ellipse cx="380.25" cy="153" fill="#ADD1B2" rx="5.5" ry="5.5" style="stroke:#A80036;stroke-width:0.5;"/><path d="M381.25,151.25 Q381.3516,151 381.4688,150.875 Q381.5859,150.75 381.7188,150.75 Q381.9531,150.75 382.1016,150.8906 Q382.25,151.0313 382.25,151.3594 L382.25,152.1406 Q382.25,152.4688 382.1094,152.6094 Q381.9688,152.75 381.75,152.75 Q381.5547,152.75 381.4297,152.6641 Q381.3047,152.5781 381.25,152.3516 Q381.2266,152.1953 381.1406,152.1094 Q380.9844,151.9453 380.7031,151.8516 Q380.4219,151.75 380.1406,151.75 Q379.7891,151.75 379.4922,151.8906 Q379.2031,152.0313 378.9766,152.3438 Q378.75,152.6563 378.75,153.0859 L378.75,153.5469 Q378.75,154.0625 379.1719,154.4063 Q379.5938,154.75 380.3438,154.75 Q380.7891,154.75 381.1016,154.6484 Q381.2813,154.5938 381.4844,154.4141 Q381.6172,154.3125 381.6875,154.2813 Q381.7578,154.25 381.8438,154.25 Q382.0078,154.25 382.125,154.3828 Q382.25,154.5078 382.25,154.6875 Q382.25,154.8594 382.0781,155.0625 Q381.8281,155.3594 381.4297,155.5234 Q380.9063,155.75 380.2656,155.75 Q379.5156,155.75 378.9141,155.4531 Q378.4297,155.2188 378.0859,154.7109 Q377.75,154.2031 377.75,153.6016 L377.75,153.0547 Q377.75,152.4297 378.0469,151.8828 Q378.3516,151.3359 378.875,151.0469 Q379.4063,150.75 380,150.75 Q380.3594,150.75 380.6719,150.875 Q380.9844,151 381.25,151.25 Z " fill="#000000"/><text fill="#000000" font-family="sans-serif" font-size="6" lengthAdjust="spacing" textLength="25.5" x="387.25" y="155.4551">StartView</text><line style="stroke:#A80036;stroke-width:0.75;" x1="373.25" x2="413.75" y1="161" y2="161"/><line style="stroke:#A80036;stroke-width:0.75;" x1="373.25" x2="413.75" y1="165" y2="165"/><!--MD5=[0c0ac116796a48fdc4c03542a0d43f99]
class InGameView--><rect codeLine="9" fill="#FEFECE" filter="url(#fp4g2cqzl6jbn)" height="24" id="InGameView" style="stroke:#A80036;stroke-width:0.75;" width="51" x="304" y="145"/><ellipse cx="311.5" cy="153" fill="#ADD1B2" rx="5.5" ry="5.5" style="stroke:#A80036;stroke-width:0.5;"/><path d="M312.5,151.25 Q312.6016,151 312.7188,150.875 Q312.8359,150.75 312.9688,150.75 Q313.2031,150.75 313.3516,150.8906 Q313.5,151.0313 313.5,151.3594 L313.5,152.1406 Q313.5,152.4688 313.3594,152.6094 Q313.2188,152.75 313,152.75 Q312.8047,152.75 312.6797,152.6641 Q312.5547,152.5781 312.5,152.3516 Q312.4766,152.1953 312.3906,152.1094 Q312.2344,151.9453 311.9531,151.8516 Q311.6719,151.75 311.3906,151.75 Q311.0391,151.75 310.7422,151.8906 Q310.4531,152.0313 310.2266,152.3438 Q310,152.6563 310,153.0859 L310,153.5469 Q310,154.0625 310.4219,154.4063 Q310.8438,154.75 311.5938,154.75 Q312.0391,154.75 312.3516,154.6484 Q312.5313,154.5938 312.7344,154.4141 Q312.8672,154.3125 312.9375,154.2813 Q313.0078,154.25 313.0938,154.25 Q313.2578,154.25 313.375,154.3828 Q313.5,154.5078 313.5,154.6875 Q313.5,154.8594 313.3281,155.0625 Q313.0781,155.3594 312.6797,155.5234 Q312.1563,155.75 311.5156,155.75 Q310.7656,155.75 310.1641,155.4531 Q309.6797,155.2188 309.3359,154.7109 Q309,154.2031 309,153.6016 L309,153.0547 Q309,152.4297 309.2969,151.8828 Q309.6016,151.3359 310.125,151.0469 Q310.6563,150.75 311.25,150.75 Q311.6094,150.75 311.9219,150.875 Q312.2344,151 312.5,151.25 Z " fill="#000000"/><text fill="#000000" font-family="sans-serif" font-size="6" lengthAdjust="spacing" textLength="35" x="318.5" y="155.4551">InGameView</text><line style="stroke:#A80036;stroke-width:0.75;" x1="304.5" x2="354.5" y1="161" y2="161"/><line style="stroke:#A80036;stroke-width:0.75;" x1="304.5" x2="354.5" y1="165" y2="165"/><!--MD5=[42fa18dda7351a0ae87d9497de925436]
class Logic--><rect codeLine="14" fill="#FEFECE" filter="url(#fp4g2cqzl6jbn)" height="24" id="Logic" style="stroke:#A80036;stroke-width:0.75;" width="31" x="477.5" y="83"/><ellipse cx="485" cy="91" fill="#ADD1B2" rx="5.5" ry="5.5" style="stroke:#A80036;stroke-width:0.5;"/><path d="M486,89.25 Q486.1016,89 486.2188,88.875 Q486.3359,88.75 486.4688,88.75 Q486.7031,88.75 486.8516,88.8906 Q487,89.0313 487,89.3594 L487,90.1406 Q487,90.4688 486.8594,90.6094 Q486.7188,90.75 486.5,90.75 Q486.3047,90.75 486.1797,90.6641 Q486.0547,90.5781 486,90.3516 Q485.9766,90.1953 485.8906,90.1094 Q485.7344,89.9453 485.4531,89.8516 Q485.1719,89.75 484.8906,89.75 Q484.5391,89.75 484.2422,89.8906 Q483.9531,90.0313 483.7266,90.3438 Q483.5,90.6563 483.5,91.0859 L483.5,91.5469 Q483.5,92.0625 483.9219,92.4063 Q484.3438,92.75 485.0938,92.75 Q485.5391,92.75 485.8516,92.6484 Q486.0313,92.5938 486.2344,92.4141 Q486.3672,92.3125 486.4375,92.2813 Q486.5078,92.25 486.5938,92.25 Q486.7578,92.25 486.875,92.3828 Q487,92.5078 487,92.6875 Q487,92.8594 486.8281,93.0625 Q486.5781,93.3594 486.1797,93.5234 Q485.6563,93.75 485.0156,93.75 Q484.2656,93.75 483.6641,93.4531 Q483.1797,93.2188 482.8359,92.7109 Q482.5,92.2031 482.5,91.6016 L482.5,91.0547 Q482.5,90.4297 482.7969,89.8828 Q483.1016,89.3359 483.625,89.0469 Q484.1563,88.75 484.75,88.75 Q485.1094,88.75 485.4219,88.875 Q485.7344,89 486,89.25 Z " fill="#000000"/><text fill="#000000" font-family="sans-serif" font-size="6" lengthAdjust="spacing" textLength="15" x="492" y="93.4551">Logic</text><line style="stroke:#A80036;stroke-width:0.75;" x1="478" x2="508" y1="99" y2="99"/><line style="stroke:#A80036;stroke-width:0.75;" x1="478" x2="508" y1="103" y2="103"/><!--MD5=[ee4f560f9433c18621313010902609a0]
class SesionValue--><rect codeLine="15" fill="#FEFECE" filter="url(#fp4g2cqzl6jbn)" height="24" id="SesionValue" style="stroke:#A80036;stroke-width:0.75;" width="51" x="467.5" y="145"/><ellipse cx="475" cy="153" fill="#EB937F" rx="5.5" ry="5.5" style="stroke:#A80036;stroke-width:0.5;"/><path d="M474.25,153.5 L474.25,154.5 L476.25,154.5 L476.25,154 L476.25,153.7578 L476.5625,153.5 L476.75,153.5 L476.9375,153.5 L477.25,153.7578 L477.25,154 L477.25,155.5 L473.25,155.5 L473.0078,155.5 L472.75,155.1875 L472.75,155 L472.75,154.8125 L473.0078,154.5 L473.25,154.5 L473.25,154.5 L473.25,151.5 L473.25,151.5 L473.0078,151.5 L472.75,151.1875 L472.75,151 L472.75,150.8125 L473.0078,150.5 L473.25,150.5 L477.25,150.5 L477.25,152 L477.25,152.2422 L476.9375,152.5 L476.75,152.5 L476.5625,152.5 L476.25,152.2422 L476.25,152 L476.25,151.5 L474.25,151.5 L474.25,152.5 L474.75,152.5 L474.75,152.2578 L474.75,152.2578 L475.0625,152 L475.25,152 L475.4375,152 L475.75,152.2578 L475.75,152.5 L475.75,153.5 L475.75,153.7422 L475.4375,154 L475.4375,154 L475.25,154 L475.0625,154 L474.75,153.7422 L474.75,153.7422 L474.75,153.5 L474.25,153.5 Z " fill="#000000"/><text fill="#000000" font-family="sans-serif" font-size="6" lengthAdjust="spacing" textLength="35" x="482" y="155.4551">SesionValue</text><line style="stroke:#A80036;stroke-width:0.75;" x1="468" x2="518" y1="161" y2="161"/><line style="stroke:#A80036;stroke-width:0.75;" x1="468" x2="518" y1="165" y2="165"/><!--MD5=[1d7ba1c7002d54515419844fbd155368]
class Controller--><rect codeLine="16" fill="#FEFECE" filter="url(#fp4g2cqzl6jbn)" height="24" id="Controller" style="stroke:#A80036;stroke-width:0.75;" width="43" x="548.5" y="145"/><ellipse cx="556" cy="153" fill="#A9DCDF" rx="5.5" ry="5.5" style="stroke:#A80036;stroke-width:0.5;"/><path d="M556.875,153.75 L555.2266,153.75 L555.0078,154.25 L555.0078,154.25 L555.2422,154.25 L555.5,154.5625 L555.5,154.75 L555.5,154.9375 L555.2422,155.25 L555.0078,155.25 L554.0625,155.25 L553.7578,155.25 L553.5,154.9375 L553.5,154.75 L553.5,154.5625 L553.7578,154.25 L554.0625,154.25 L555.2188,151.25 L554.7813,151.25 L554.2578,151.25 L554,150.9375 L554,150.75 L554,150.5625 L554.2578,150.25 L554.7813,150.25 L556.6172,150.25 L557.9609,154.25 L558.2422,154.25 L558.2422,154.25 L558.5,154.5625 L558.5,154.75 L558.5,154.9375 L558.2422,155.25 L557.9609,155.25 L557.0156,155.25 L556.7578,155.25 L556.5,154.9375 L556.5,154.75 L556.5,154.5625 L556.7578,154.25 L557.0156,154.25 L557.0156,154.25 L556.875,153.75 Z M556.6016,152.75 L556,150.9609 L555.4844,152.75 L556.6016,152.75 Z " fill="#000000"/><text fill="#000000" font-family="sans-serif" font-size="6" font-style="italic" lengthAdjust="spacing" textLength="27" x="563" y="155.4551">Controller</text><line style="stroke:#A80036;stroke-width:0.75;" x1="549" x2="591" y1="161" y2="161"/><line style="stroke:#A80036;stroke-width:0.75;" x1="549" x2="591" y1="165" y2="165"/><!--MD5=[47c371471411cfedeee61b1a5bdaee47]
class StartController--><rect codeLine="17" fill="#FEFECE" filter="url(#fp4g2cqzl6jbn)" height="24" id="StartController" style="stroke:#A80036;stroke-width:0.75;" width="55.5" x="454.75" y="199"/><ellipse cx="462.25" cy="207" fill="#ADD1B2" rx="5.5" ry="5.5" style="stroke:#A80036;stroke-width:0.5;"/><path d="M463.25,205.25 Q463.3516,205 463.4688,204.875 Q463.5859,204.75 463.7188,204.75 Q463.9531,204.75 464.1016,204.8906 Q464.25,205.0313 464.25,205.3594 L464.25,206.1406 Q464.25,206.4688 464.1094,206.6094 Q463.9688,206.75 463.75,206.75 Q463.5547,206.75 463.4297,206.6641 Q463.3047,206.5781 463.25,206.3516 Q463.2266,206.1953 463.1406,206.1094 Q462.9844,205.9453 462.7031,205.8516 Q462.4219,205.75 462.1406,205.75 Q461.7891,205.75 461.4922,205.8906 Q461.2031,206.0313 460.9766,206.3438 Q460.75,206.6563 460.75,207.0859 L460.75,207.5469 Q460.75,208.0625 461.1719,208.4063 Q461.5938,208.75 462.3438,208.75 Q462.7891,208.75 463.1016,208.6484 Q463.2813,208.5938 463.4844,208.4141 Q463.6172,208.3125 463.6875,208.2813 Q463.7578,208.25 463.8438,208.25 Q464.0078,208.25 464.125,208.3828 Q464.25,208.5078 464.25,208.6875 Q464.25,208.8594 464.0781,209.0625 Q463.8281,209.3594 463.4297,209.5234 Q462.9063,209.75 462.2656,209.75 Q461.5156,209.75 460.9141,209.4531 Q460.4297,209.2188 460.0859,208.7109 Q459.75,208.2031 459.75,207.6016 L459.75,207.0547 Q459.75,206.4297 460.0469,205.8828 Q460.3516,205.3359 460.875,205.0469 Q461.4063,204.75 462,204.75 Q462.3594,204.75 462.6719,204.875 Q462.9844,205 463.25,205.25 Z " fill="#000000"/><text fill="#000000" font-family="sans-serif" font-size="6" lengthAdjust="spacing" textLength="39.5" x="469.25" y="209.4551">StartController</text><line style="stroke:#A80036;stroke-width:0.75;" x1="455.25" x2="509.75" y1="215" y2="215"/><line style="stroke:#A80036;stroke-width:0.75;" x1="455.25" x2="509.75" y1="219" y2="219"/><!--MD5=[4fcc3d7338e72a744d3bcdf244a69025]
class ProposedWordController--><rect codeLine="18" fill="#FEFECE" filter="url(#fp4g2cqzl6jbn)" height="24" id="ProposedWordController" style="stroke:#A80036;stroke-width:0.75;" width="84.5" x="527.75" y="199"/><ellipse cx="535.25" cy="207" fill="#ADD1B2" rx="5.5" ry="5.5" style="stroke:#A80036;stroke-width:0.5;"/><path d="M536.25,205.25 Q536.3516,205 536.4688,204.875 Q536.5859,204.75 536.7188,204.75 Q536.9531,204.75 537.1016,204.8906 Q537.25,205.0313 537.25,205.3594 L537.25,206.1406 Q537.25,206.4688 537.1094,206.6094 Q536.9688,206.75 536.75,206.75 Q536.5547,206.75 536.4297,206.6641 Q536.3047,206.5781 536.25,206.3516 Q536.2266,206.1953 536.1406,206.1094 Q535.9844,205.9453 535.7031,205.8516 Q535.4219,205.75 535.1406,205.75 Q534.7891,205.75 534.4922,205.8906 Q534.2031,206.0313 533.9766,206.3438 Q533.75,206.6563 533.75,207.0859 L533.75,207.5469 Q533.75,208.0625 534.1719,208.4063 Q534.5938,208.75 535.3438,208.75 Q535.7891,208.75 536.1016,208.6484 Q536.2813,208.5938 536.4844,208.4141 Q536.6172,208.3125 536.6875,208.2813 Q536.7578,208.25 536.8438,208.25 Q537.0078,208.25 537.125,208.3828 Q537.25,208.5078 537.25,208.6875 Q537.25,208.8594 537.0781,209.0625 Q536.8281,209.3594 536.4297,209.5234 Q535.9063,209.75 535.2656,209.75 Q534.5156,209.75 533.9141,209.4531 Q533.4297,209.2188 533.0859,208.7109 Q532.75,208.2031 532.75,207.6016 L532.75,207.0547 Q532.75,206.4297 533.0469,205.8828 Q533.3516,205.3359 533.875,205.0469 Q534.4063,204.75 535,204.75 Q535.3594,204.75 535.6719,204.875 Q535.9844,205 536.25,205.25 Z " fill="#000000"/><text fill="#000000" font-family="sans-serif" font-size="6" lengthAdjust="spacing" textLength="68.5" x="542.25" y="209.4551">ProposedWordController</text><line style="stroke:#A80036;stroke-width:0.75;" x1="528.25" x2="611.75" y1="215" y2="215"/><line style="stroke:#A80036;stroke-width:0.75;" x1="528.25" x2="611.75" y1="219" y2="219"/><!--MD5=[511686e480a8766f0b494fb5fe2e6f11]
class ProposedCharController--><rect codeLine="19" fill="#FEFECE" filter="url(#fp4g2cqzl6jbn)" height="24" id="ProposedCharController" style="stroke:#A80036;stroke-width:0.75;" width="83.5" x="629.75" y="199"/><ellipse cx="637.25" cy="207" fill="#ADD1B2" rx="5.5" ry="5.5" style="stroke:#A80036;stroke-width:0.5;"/><path d="M638.25,205.25 Q638.3516,205 638.4688,204.875 Q638.5859,204.75 638.7188,204.75 Q638.9531,204.75 639.1016,204.8906 Q639.25,205.0313 639.25,205.3594 L639.25,206.1406 Q639.25,206.4688 639.1094,206.6094 Q638.9688,206.75 638.75,206.75 Q638.5547,206.75 638.4297,206.6641 Q638.3047,206.5781 638.25,206.3516 Q638.2266,206.1953 638.1406,206.1094 Q637.9844,205.9453 637.7031,205.8516 Q637.4219,205.75 637.1406,205.75 Q636.7891,205.75 636.4922,205.8906 Q636.2031,206.0313 635.9766,206.3438 Q635.75,206.6563 635.75,207.0859 L635.75,207.5469 Q635.75,208.0625 636.1719,208.4063 Q636.5938,208.75 637.3438,208.75 Q637.7891,208.75 638.1016,208.6484 Q638.2813,208.5938 638.4844,208.4141 Q638.6172,208.3125 638.6875,208.2813 Q638.7578,208.25 638.8438,208.25 Q639.0078,208.25 639.125,208.3828 Q639.25,208.5078 639.25,208.6875 Q639.25,208.8594 639.0781,209.0625 Q638.8281,209.3594 638.4297,209.5234 Q637.9063,209.75 637.2656,209.75 Q636.5156,209.75 635.9141,209.4531 Q635.4297,209.2188 635.0859,208.7109 Q634.75,208.2031 634.75,207.6016 L634.75,207.0547 Q634.75,206.4297 635.0469,205.8828 Q635.3516,205.3359 635.875,205.0469 Q636.4063,204.75 637,204.75 Q637.3594,204.75 637.6719,204.875 Q637.9844,205 638.25,205.25 Z " fill="#000000"/><text fill="#000000" font-family="sans-serif" font-size="6" lengthAdjust="spacing" textLength="67.5" x="644.25" y="209.4551">ProposedCharController</text><line style="stroke:#A80036;stroke-width:0.75;" x1="630.25" x2="712.75" y1="215" y2="215"/><line style="stroke:#A80036;stroke-width:0.75;" x1="630.25" x2="712.75" y1="219" y2="219"/><!--MD5=[f25ee20dba692cd6c0e95111d247e8f6]
class EndController--><rect codeLine="20" fill="#FEFECE" filter="url(#fp4g2cqzl6jbn)" height="24" id="EndController" style="stroke:#A80036;stroke-width:0.75;" width="54" x="731" y="199"/><ellipse cx="738.5" cy="207" fill="#ADD1B2" rx="5.5" ry="5.5" style="stroke:#A80036;stroke-width:0.5;"/><path d="M739.5,205.25 Q739.6016,205 739.7188,204.875 Q739.8359,204.75 739.9688,204.75 Q740.2031,204.75 740.3516,204.8906 Q740.5,205.0313 740.5,205.3594 L740.5,206.1406 Q740.5,206.4688 740.3594,206.6094 Q740.2188,206.75 740,206.75 Q739.8047,206.75 739.6797,206.6641 Q739.5547,206.5781 739.5,206.3516 Q739.4766,206.1953 739.3906,206.1094 Q739.2344,205.9453 738.9531,205.8516 Q738.6719,205.75 738.3906,205.75 Q738.0391,205.75 737.7422,205.8906 Q737.4531,206.0313 737.2266,206.3438 Q737,206.6563 737,207.0859 L737,207.5469 Q737,208.0625 737.4219,208.4063 Q737.8438,208.75 738.5938,208.75 Q739.0391,208.75 739.3516,208.6484 Q739.5313,208.5938 739.7344,208.4141 Q739.8672,208.3125 739.9375,208.2813 Q740.0078,208.25 740.0938,208.25 Q740.2578,208.25 740.375,208.3828 Q740.5,208.5078 740.5,208.6875 Q740.5,208.8594 740.3281,209.0625 Q740.0781,209.3594 739.6797,209.5234 Q739.1563,209.75 738.5156,209.75 Q737.7656,209.75 737.1641,209.4531 Q736.6797,209.2188 736.3359,208.7109 Q736,208.2031 736,207.6016 L736,207.0547 Q736,206.4297 736.2969,205.8828 Q736.6016,205.3359 737.125,205.0469 Q737.6563,204.75 738.25,204.75 Q738.6094,204.75 738.9219,204.875 Q739.2344,205 739.5,205.25 Z " fill="#000000"/><text fill="#000000" font-family="sans-serif" font-size="6" lengthAdjust="spacing" textLength="38" x="745.5" y="209.4551">EndController</text><line style="stroke:#A80036;stroke-width:0.75;" x1="731.5" x2="784.5" y1="215" y2="215"/><line style="stroke:#A80036;stroke-width:0.75;" x1="731.5" x2="784.5" y1="219" y2="219"/><!--MD5=[07513b2cfa2016c46090541be20532fe]
class Word--><rect codeLine="27" fill="#FEFECE" filter="url(#fp4g2cqzl6jbn)" height="24" id="Word" style="stroke:#A80036;stroke-width:0.75;" width="30.5" x="103.75" y="21"/><ellipse cx="111.25" cy="29" fill="#A9DCDF" rx="5.5" ry="5.5" style="stroke:#A80036;stroke-width:0.5;"/><path d="M112.125,29.75 L110.4766,29.75 L110.2578,30.25 L110.2578,30.25 L110.4922,30.25 L110.75,30.5625 L110.75,30.75 L110.75,30.9375 L110.4922,31.25 L110.2578,31.25 L109.3125,31.25 L109.0078,31.25 L108.75,30.9375 L108.75,30.75 L108.75,30.5625 L109.0078,30.25 L109.3125,30.25 L110.4688,27.25 L110.0313,27.25 L109.5078,27.25 L109.25,26.9375 L109.25,26.75 L109.25,26.5625 L109.5078,26.25 L110.0313,26.25 L111.8672,26.25 L113.2109,30.25 L113.4922,30.25 L113.4922,30.25 L113.75,30.5625 L113.75,30.75 L113.75,30.9375 L113.4922,31.25 L113.2109,31.25 L112.2656,31.25 L112.0078,31.25 L111.75,30.9375 L111.75,30.75 L111.75,30.5625 L112.0078,30.25 L112.2656,30.25 L112.2656,30.25 L112.125,29.75 Z M111.8516,28.75 L111.25,26.9609 L110.7344,28.75 L111.8516,28.75 Z " fill="#000000"/><text fill="#000000" font-family="sans-serif" font-size="6" font-style="italic" lengthAdjust="spacing" textLength="14.5" x="118.25" y="31.4551">Word</text><line style="stroke:#A80036;stroke-width:0.75;" x1="104.25" x2="133.75" y1="37" y2="37"/><line style="stroke:#A80036;stroke-width:0.75;" x1="104.25" x2="133.75" y1="41" y2="41"/><!--MD5=[acd04681fe4e78431fb408d1ad443a63]
class ProposedChar--><rect codeLine="28" fill="#FEFECE" filter="url(#fp4g2cqzl6jbn)" height="24" id="ProposedChar" style="stroke:#A80036;stroke-width:0.75;" width="56.5" x="16.25" y="83"/><ellipse cx="23.75" cy="91" fill="#ADD1B2" rx="5.5" ry="5.5" style="stroke:#A80036;stroke-width:0.5;"/><path d="M24.75,89.25 Q24.8516,89 24.9688,88.875 Q25.0859,88.75 25.2188,88.75 Q25.4531,88.75 25.6016,88.8906 Q25.75,89.0313 25.75,89.3594 L25.75,90.1406 Q25.75,90.4688 25.6094,90.6094 Q25.4688,90.75 25.25,90.75 Q25.0547,90.75 24.9297,90.6641 Q24.8047,90.5781 24.75,90.3516 Q24.7266,90.1953 24.6406,90.1094 Q24.4844,89.9453 24.2031,89.8516 Q23.9219,89.75 23.6406,89.75 Q23.2891,89.75 22.9922,89.8906 Q22.7031,90.0313 22.4766,90.3438 Q22.25,90.6563 22.25,91.0859 L22.25,91.5469 Q22.25,92.0625 22.6719,92.4063 Q23.0938,92.75 23.8438,92.75 Q24.2891,92.75 24.6016,92.6484 Q24.7813,92.5938 24.9844,92.4141 Q25.1172,92.3125 25.1875,92.2813 Q25.2578,92.25 25.3438,92.25 Q25.5078,92.25 25.625,92.3828 Q25.75,92.5078 25.75,92.6875 Q25.75,92.8594 25.5781,93.0625 Q25.3281,93.3594 24.9297,93.5234 Q24.4063,93.75 23.7656,93.75 Q23.0156,93.75 22.4141,93.4531 Q21.9297,93.2188 21.5859,92.7109 Q21.25,92.2031 21.25,91.6016 L21.25,91.0547 Q21.25,90.4297 21.5469,89.8828 Q21.8516,89.3359 22.375,89.0469 Q22.9063,88.75 23.5,88.75 Q23.8594,88.75 24.1719,88.875 Q24.4844,89 24.75,89.25 Z " fill="#000000"/><text fill="#000000" font-family="sans-serif" font-size="6" lengthAdjust="spacing" textLength="40.5" x="30.75" y="93.4551">ProposedChar</text><line style="stroke:#A80036;stroke-width:0.75;" x1="16.75" x2="72.25" y1="99" y2="99"/><line style="stroke:#A80036;stroke-width:0.75;" x1="16.75" x2="72.25" y1="103" y2="103"/><!--MD5=[7548fcd528851361d063f8551be16fc3]
class ProposedWord--><rect codeLine="29" fill="#FEFECE" filter="url(#fp4g2cqzl6jbn)" height="24" id="ProposedWord" style="stroke:#A80036;stroke-width:0.75;" width="57.5" x="90.25" y="83"/><ellipse cx="97.75" cy="91" fill="#ADD1B2" rx="5.5" ry="5.5" style="stroke:#A80036;stroke-width:0.5;"/><path d="M98.75,89.25 Q98.8516,89 98.9688,88.875 Q99.0859,88.75 99.2188,88.75 Q99.4531,88.75 99.6016,88.8906 Q99.75,89.0313 99.75,89.3594 L99.75,90.1406 Q99.75,90.4688 99.6094,90.6094 Q99.4688,90.75 99.25,90.75 Q99.0547,90.75 98.9297,90.6641 Q98.8047,90.5781 98.75,90.3516 Q98.7266,90.1953 98.6406,90.1094 Q98.4844,89.9453 98.2031,89.8516 Q97.9219,89.75 97.6406,89.75 Q97.2891,89.75 96.9922,89.8906 Q96.7031,90.0313 96.4766,90.3438 Q96.25,90.6563 96.25,91.0859 L96.25,91.5469 Q96.25,92.0625 96.6719,92.4063 Q97.0938,92.75 97.8438,92.75 Q98.2891,92.75 98.6016,92.6484 Q98.7813,92.5938 98.9844,92.4141 Q99.1172,92.3125 99.1875,92.2813 Q99.2578,92.25 99.3438,92.25 Q99.5078,92.25 99.625,92.3828 Q99.75,92.5078 99.75,92.6875 Q99.75,92.8594 99.5781,93.0625 Q99.3281,93.3594 98.9297,93.5234 Q98.4063,93.75 97.7656,93.75 Q97.0156,93.75 96.4141,93.4531 Q95.9297,93.2188 95.5859,92.7109 Q95.25,92.2031 95.25,91.6016 L95.25,91.0547 Q95.25,90.4297 95.5469,89.8828 Q95.8516,89.3359 96.375,89.0469 Q96.9063,88.75 97.5,88.75 Q97.8594,88.75 98.1719,88.875 Q98.4844,89 98.75,89.25 Z " fill="#000000"/><text fill="#000000" font-family="sans-serif" font-size="6" lengthAdjust="spacing" textLength="41.5" x="104.75" y="93.4551">ProposedWord</text><line style="stroke:#A80036;stroke-width:0.75;" x1="90.75" x2="147.25" y1="99" y2="99"/><line style="stroke:#A80036;stroke-width:0.75;" x1="90.75" x2="147.25" y1="103" y2="103"/><!--MD5=[1e8c54f5ac0ec684c0f71587f512d7a6]
class SecretWord--><rect codeLine="30" fill="#FEFECE" filter="url(#fp4g2cqzl6jbn)" height="24" id="SecretWord" style="stroke:#A80036;stroke-width:0.75;" width="48" x="165.5" y="83"/><ellipse cx="173" cy="91" fill="#ADD1B2" rx="5.5" ry="5.5" style="stroke:#A80036;stroke-width:0.5;"/><path d="M174,89.25 Q174.1016,89 174.2188,88.875 Q174.3359,88.75 174.4688,88.75 Q174.7031,88.75 174.8516,88.8906 Q175,89.0313 175,89.3594 L175,90.1406 Q175,90.4688 174.8594,90.6094 Q174.7188,90.75 174.5,90.75 Q174.3047,90.75 174.1797,90.6641 Q174.0547,90.5781 174,90.3516 Q173.9766,90.1953 173.8906,90.1094 Q173.7344,89.9453 173.4531,89.8516 Q173.1719,89.75 172.8906,89.75 Q172.5391,89.75 172.2422,89.8906 Q171.9531,90.0313 171.7266,90.3438 Q171.5,90.6563 171.5,91.0859 L171.5,91.5469 Q171.5,92.0625 171.9219,92.4063 Q172.3438,92.75 173.0938,92.75 Q173.5391,92.75 173.8516,92.6484 Q174.0313,92.5938 174.2344,92.4141 Q174.3672,92.3125 174.4375,92.2813 Q174.5078,92.25 174.5938,92.25 Q174.7578,92.25 174.875,92.3828 Q175,92.5078 175,92.6875 Q175,92.8594 174.8281,93.0625 Q174.5781,93.3594 174.1797,93.5234 Q173.6563,93.75 173.0156,93.75 Q172.2656,93.75 171.6641,93.4531 Q171.1797,93.2188 170.8359,92.7109 Q170.5,92.2031 170.5,91.6016 L170.5,91.0547 Q170.5,90.4297 170.7969,89.8828 Q171.1016,89.3359 171.625,89.0469 Q172.1563,88.75 172.75,88.75 Q173.1094,88.75 173.4219,88.875 Q173.7344,89 174,89.25 Z " fill="#000000"/><text fill="#000000" font-family="sans-serif" font-size="6" lengthAdjust="spacing" textLength="32" x="180" y="93.4551">SecretWord</text><line style="stroke:#A80036;stroke-width:0.75;" x1="166" x2="213" y1="99" y2="99"/><line style="stroke:#A80036;stroke-width:0.75;" x1="166" x2="213" y1="103" y2="103"/><!--MD5=[7dc9f4e9588c839c0e53a881b84874c2]
class HangedPart--><rect codeLine="31" fill="#FEFECE" filter="url(#fp4g2cqzl6jbn)" height="24" id="HangedPart" style="stroke:#A80036;stroke-width:0.75;" width="49" x="168.5" y="21"/><ellipse cx="176" cy="29" fill="#ADD1B2" rx="5.5" ry="5.5" style="stroke:#A80036;stroke-width:0.5;"/><path d="M177,27.25 Q177.1016,27 177.2188,26.875 Q177.3359,26.75 177.4688,26.75 Q177.7031,26.75 177.8516,26.8906 Q178,27.0313 178,27.3594 L178,28.1406 Q178,28.4688 177.8594,28.6094 Q177.7188,28.75 177.5,28.75 Q177.3047,28.75 177.1797,28.6641 Q177.0547,28.5781 177,28.3516 Q176.9766,28.1953 176.8906,28.1094 Q176.7344,27.9453 176.4531,27.8516 Q176.1719,27.75 175.8906,27.75 Q175.5391,27.75 175.2422,27.8906 Q174.9531,28.0313 174.7266,28.3438 Q174.5,28.6563 174.5,29.0859 L174.5,29.5469 Q174.5,30.0625 174.9219,30.4063 Q175.3438,30.75 176.0938,30.75 Q176.5391,30.75 176.8516,30.6484 Q177.0313,30.5938 177.2344,30.4141 Q177.3672,30.3125 177.4375,30.2813 Q177.5078,30.25 177.5938,30.25 Q177.7578,30.25 177.875,30.3828 Q178,30.5078 178,30.6875 Q178,30.8594 177.8281,31.0625 Q177.5781,31.3594 177.1797,31.5234 Q176.6563,31.75 176.0156,31.75 Q175.2656,31.75 174.6641,31.4531 Q174.1797,31.2188 173.8359,30.7109 Q173.5,30.2031 173.5,29.6016 L173.5,29.0547 Q173.5,28.4297 173.7969,27.8828 Q174.1016,27.3359 174.625,27.0469 Q175.1563,26.75 175.75,26.75 Q176.1094,26.75 176.4219,26.875 Q176.7344,27 177,27.25 Z " fill="#000000"/><text fill="#000000" font-family="sans-serif" font-size="6" lengthAdjust="spacing" textLength="33" x="183" y="31.4551">HangedPart</text><line style="stroke:#A80036;stroke-width:0.75;" x1="169" x2="217" y1="37" y2="37"/><line style="stroke:#A80036;stroke-width:0.75;" x1="169" x2="217" y1="41" y2="41"/><!--MD5=[dd91eae41778c45e12552e5329e240e8]
class Turn--><rect codeLine="32" fill="#FEFECE" filter="url(#fp4g2cqzl6jbn)" height="24" id="Turn" style="stroke:#A80036;stroke-width:0.75;" width="28.5" x="235.25" y="21"/><ellipse cx="242.75" cy="29" fill="#ADD1B2" rx="5.5" ry="5.5" style="stroke:#A80036;stroke-width:0.5;"/><path d="M243.75,27.25 Q243.8516,27 243.9688,26.875 Q244.0859,26.75 244.2188,26.75 Q244.4531,26.75 244.6016,26.8906 Q244.75,27.0313 244.75,27.3594 L244.75,28.1406 Q244.75,28.4688 244.6094,28.6094 Q244.4688,28.75 244.25,28.75 Q244.0547,28.75 243.9297,28.6641 Q243.8047,28.5781 243.75,28.3516 Q243.7266,28.1953 243.6406,28.1094 Q243.4844,27.9453 243.2031,27.8516 Q242.9219,27.75 242.6406,27.75 Q242.2891,27.75 241.9922,27.8906 Q241.7031,28.0313 241.4766,28.3438 Q241.25,28.6563 241.25,29.0859 L241.25,29.5469 Q241.25,30.0625 241.6719,30.4063 Q242.0938,30.75 242.8438,30.75 Q243.2891,30.75 243.6016,30.6484 Q243.7813,30.5938 243.9844,30.4141 Q244.1172,30.3125 244.1875,30.2813 Q244.2578,30.25 244.3438,30.25 Q244.5078,30.25 244.625,30.3828 Q244.75,30.5078 244.75,30.6875 Q244.75,30.8594 244.5781,31.0625 Q244.3281,31.3594 243.9297,31.5234 Q243.4063,31.75 242.7656,31.75 Q242.0156,31.75 241.4141,31.4531 Q240.9297,31.2188 240.5859,30.7109 Q240.25,30.2031 240.25,29.6016 L240.25,29.0547 Q240.25,28.4297 240.5469,27.8828 Q240.8516,27.3359 241.375,27.0469 Q241.9063,26.75 242.5,26.75 Q242.8594,26.75 243.1719,26.875 Q243.4844,27 243.75,27.25 Z " fill="#000000"/><text fill="#000000" font-family="sans-serif" font-size="6" lengthAdjust="spacing" textLength="12.5" x="249.75" y="31.4551">Turn</text><line style="stroke:#A80036;stroke-width:0.75;" x1="235.75" x2="263.25" y1="37" y2="37"/><line style="stroke:#A80036;stroke-width:0.75;" x1="235.75" x2="263.25" y1="41" y2="41"/><!--MD5=[2cb47ba637a0d19583e6199456f6ad0b]
class Player--><rect codeLine="33" fill="#FEFECE" filter="url(#fp4g2cqzl6jbn)" height="24" id="Player" style="stroke:#A80036;stroke-width:0.75;" width="33" x="231" y="83"/><ellipse cx="238.5" cy="91" fill="#ADD1B2" rx="5.5" ry="5.5" style="stroke:#A80036;stroke-width:0.5;"/><path d="M239.5,89.25 Q239.6016,89 239.7188,88.875 Q239.8359,88.75 239.9688,88.75 Q240.2031,88.75 240.3516,88.8906 Q240.5,89.0313 240.5,89.3594 L240.5,90.1406 Q240.5,90.4688 240.3594,90.6094 Q240.2188,90.75 240,90.75 Q239.8047,90.75 239.6797,90.6641 Q239.5547,90.5781 239.5,90.3516 Q239.4766,90.1953 239.3906,90.1094 Q239.2344,89.9453 238.9531,89.8516 Q238.6719,89.75 238.3906,89.75 Q238.0391,89.75 237.7422,89.8906 Q237.4531,90.0313 237.2266,90.3438 Q237,90.6563 237,91.0859 L237,91.5469 Q237,92.0625 237.4219,92.4063 Q237.8438,92.75 238.5938,92.75 Q239.0391,92.75 239.3516,92.6484 Q239.5313,92.5938 239.7344,92.4141 Q239.8672,92.3125 239.9375,92.2813 Q240.0078,92.25 240.0938,92.25 Q240.2578,92.25 240.375,92.3828 Q240.5,92.5078 240.5,92.6875 Q240.5,92.8594 240.3281,93.0625 Q240.0781,93.3594 239.6797,93.5234 Q239.1563,93.75 238.5156,93.75 Q237.7656,93.75 237.1641,93.4531 Q236.6797,93.2188 236.3359,92.7109 Q236,92.2031 236,91.6016 L236,91.0547 Q236,90.4297 236.2969,89.8828 Q236.6016,89.3359 237.125,89.0469 Q237.6563,88.75 238.25,88.75 Q238.6094,88.75 238.9219,88.875 Q239.2344,89 239.5,89.25 Z " fill="#000000"/><text fill="#000000" font-family="sans-serif" font-size="6" lengthAdjust="spacing" textLength="17" x="245.5" y="93.4551">Player</text><line style="stroke:#A80036;stroke-width:0.75;" x1="231.5" x2="263.5" y1="99" y2="99"/><line style="stroke:#A80036;stroke-width:0.75;" x1="231.5" x2="263.5" y1="103" y2="103"/><!--MD5=[98c712d6c16a4ce2e31b2930753001e2]
link Hanged to View--><path codeLine="35" d="M434.7741,49.5319 C434.7741,49.5319 416.59,69.35 408.595,78.055 " fill="none" id="Hanged-View" style="stroke:#A80036;stroke-width:0.5;"/><polygon fill="#A80036" points="404.125,82.925,408.6414,80.9623,405.8156,81.0833,405.6946,78.2574,404.125,82.925" style="stroke:#A80036;stroke-width:0.5;"/><line style="stroke:#A80036;stroke-width:0.5;" x1="405.8156" x2="408.52" y1="81.0833" y2="78.1375"/><polygon fill="#A80036" points="438.835,45.115,435.3322,45.9698,434.7741,49.5319,438.2768,48.6771,438.835,45.115" style="stroke:#A80036;stroke-width:0.5;"/><!--MD5=[34ad7eb222c81a08ccc175dd3309ae0c]
link Hanged to Logic--><path codeLine="36" d="M461.2668,50.0014 C461.2668,50.0014 474.84,69.03 480.825,77.425 " fill="none" id="Hanged-Logic" style="stroke:#A80036;stroke-width:0.5;"/><polygon fill="#A80036" points="484.745,82.925,483.7624,78.0996,483.2942,80.889,480.5048,80.4208,484.745,82.925" style="stroke:#A80036;stroke-width:0.5;"/><line style="stroke:#A80036;stroke-width:0.5;" x1="483.2942" x2="480.9725" y1="80.889" y2="77.635"/><polygon fill="#A80036" points="457.785,45.115,457.8971,48.7188,461.2668,50.0014,461.1547,46.3976,457.785,45.115" style="stroke:#A80036;stroke-width:0.5;"/><!--MD5=[659ed500b9b8ead0181f4562a7521276]
link Logic to Controller--><path codeLine="37" d="M512.3675,110.8414 C512.3675,110.8414 538.74,131.735 550.19,140.81 " fill="none" id="Logic-Controller" style="stroke:#A80036;stroke-width:0.5;"/><polygon fill="#A80036" points="555.39,144.925,553.1023,140.5642,553.4296,143.3737,550.6201,143.701,555.39,144.925" style="stroke:#A80036;stroke-width:0.5;"/><line style="stroke:#A80036;stroke-width:0.5;" x1="553.4296" x2="550.2975" y1="143.3737" y2="140.89"/><polygon fill="#FFFFFF" points="507.665,107.115,508.7741,110.5457,512.3675,110.8414,511.2584,107.4107,507.665,107.115" style="stroke:#A80036;stroke-width:0.5;"/><!--MD5=[d97c95d7197a20d753a2598eef0a9990]
reverse link View to StartView--><path codeLine="38" d="M393.5,117.135 C393.5,126.505 393.5,137.09 393.5,144.925 " fill="none" id="View-backto-StartView" style="stroke:#A80036;stroke-width:0.5;"/><polygon fill="none" points="390,117.115,393.5,107.115,397,117.115,390,117.115" style="stroke:#A80036;stroke-width:0.5;"/><!--MD5=[c2498cadc8432f567dbe81f01cb7b226]
reverse link View to InGameView--><path codeLine="39" d="M373.525,114.015 C370.33,117.01 367.065,120.08 364,123 C356.38,130.25 347.9,138.48 341.26,144.965 " fill="none" id="View-backto-InGameView" style="stroke:#A80036;stroke-width:0.5;"/><polygon fill="none" points="371.26,111.345,380.96,107.085,376.035,116.465,371.26,111.345" style="stroke:#A80036;stroke-width:0.5;"/><!--MD5=[354d6deacb49030493b7fd8cb23ebdce]
reverse link Controller to StartController--><path codeLine="41" d="M550.785,175.815 C543.82,181.825 535.65,188.185 527.5,193 C522.16,196.155 516.145,198.945 510.295,201.325 " fill="none" id="Controller-backto-StartController" style="stroke:#A80036;stroke-width:0.5;"/><polygon fill="none" points="548.56,173.115,558.34,169.04,553.235,178.325,548.56,173.115" style="stroke:#A80036;stroke-width:0.5;"/><!--MD5=[f4337827677e4d3e764b574c89ecaffa]
reverse link Controller to ProposedWordController--><path codeLine="42" d="M570,179.01 C570,185.79 570,193.02 570,198.84 " fill="none" id="Controller-backto-ProposedWordController" style="stroke:#A80036;stroke-width:0.5;"/><polygon fill="none" points="566.5,179,570,169,573.5,179,566.5,179" style="stroke:#A80036;stroke-width:0.5;"/><!--MD5=[4b5fd7361db02086857604741f8a4753]
reverse link Controller to ProposedCharController--><path codeLine="43" d="M600.585,173.47 C616.27,181.66 635.025,191.455 649.305,198.91 " fill="none" id="Controller-backto-ProposedCharController" style="stroke:#A80036;stroke-width:0.5;"/><polygon fill="none" points="598.77,176.47,591.525,168.74,602.01,170.265,598.77,176.47" style="stroke:#A80036;stroke-width:0.5;"/><!--MD5=[2fb970939bfdd83753cb735b37d8ddc8]
reverse link Controller to EndController--><path codeLine="44" d="M601.345,165.64 C632.16,173.74 680.465,186.7 722,199 C724.895,199.855 727.91,200.775 730.91,201.71 " fill="none" id="Controller-backto-EndController" style="stroke:#A80036;stroke-width:0.5;"/><polygon fill="none" points="600.39,169.01,591.605,163.09,602.165,162.235,600.39,169.01" style="stroke:#A80036;stroke-width:0.5;"/><!--MD5=[1df94896617dd62ae80c80e9749abfc4]
link Logic to SesionValue--><path codeLine="46" d="M493,113.115 C493,113.115 493,130.475 493,138.23 " fill="none" id="Logic-SesionValue" style="stroke:#A80036;stroke-width:0.5;"/><polygon fill="#A80036" points="493,144.925,495,140.425,493,142.425,491,140.425,493,144.925" style="stroke:#A80036;stroke-width:0.5;"/><line style="stroke:#A80036;stroke-width:0.5;" x1="493" x2="493" y1="142.425" y2="138.425"/><polygon fill="#FFFFFF" points="493,107.115,491,110.115,493,113.115,495,110.115,493,107.115" style="stroke:#A80036;stroke-width:0.5;"/><!--MD5=[3885fcd414882a10c933b601f37f5444]
reverse link Word to ProposedChar--><path codeLine="47" d="M95.44,50.205 C90.755,53.685 85.92,57.395 81.5,61 C72.97,67.955 63.8,76.255 56.72,82.855 " fill="none" id="Word-backto-ProposedChar" style="stroke:#A80036;stroke-width:0.5;"/><polygon fill="none" points="93.445,47.325,103.585,44.26,97.575,52.98,93.445,47.325" style="stroke:#A80036;stroke-width:0.5;"/><!--MD5=[fb4716de87831dad7a0e2e9212b3c14a]
reverse link Word to ProposedWord--><path codeLine="48" d="M119,55.135 C119,64.505 119,75.09 119,82.925 " fill="none" id="Word-backto-ProposedWord" style="stroke:#A80036;stroke-width:0.5;"/><polygon fill="none" points="115.5,55.115,119,45.115,122.5,55.115,115.5,55.115" style="stroke:#A80036;stroke-width:0.5;"/><!--MD5=[7ff0a52c509d9d569fc0b9dcb70aa6c3]
reverse link Word to SecretWord--><path codeLine="49" d="M142.605,49.915 C147.315,53.44 152.15,57.24 156.5,61 C164.405,67.835 172.655,76.21 178.93,82.875 " fill="none" id="Word-backto-SecretWord" style="stroke:#A80036;stroke-width:0.5;"/><polygon fill="none" points="140.415,52.655,134.385,43.94,144.535,46.995,140.415,52.655" style="stroke:#A80036;stroke-width:0.5;"/><!--MD5=[c6f917114e7131cd10a00160d6dc7d19]
link HangedPart to Turn--><!--MD5=[da4331cb2247fe3a8b6066a13c98030e]
link HangedPart to Player--><!--MD5=[eb5c2f78d0b0bd9a159b3b6999458617]
@startuml
package "main" {
class Hanged
}

package "views"{
abstract class View
    package "console" {
        class StartView
        class InGameView
    }
}

package "controllers"{
class Logic
enum SesionValue
abstract class Controller
class StartController
class ProposedWordController
class ProposedCharController
class EndController


}


package "models" {
abstract class Word
class ProposedChar
class ProposedWord
class SecretWord
class HangedPart
class Turn
class Player
}
Hanged *- -> View
Hanged *- -> Logic
Logic o- -> Controller
View <|- - StartView
View <|- - InGameView

Controller <|- - StartController
Controller <|- - ProposedWordController
Controller <|- - ProposedCharController
Controller <|- - EndController

Logic o- -> SesionValue
Word <|- - ProposedChar
Word <|- - ProposedWord
Word <|- - SecretWord



@enduml

PlantUML version 1.2021.7(Sun May 23 14:40:07 CEST 2021)
(GPL source distribution)
Java Runtime: OpenJDK Runtime Environment
JVM: OpenJDK 64-Bit Server VM
Default Encoding: Cp1252
Language: es
Country: ES
--></g></svg>